<svg width="32" height="36" viewBox="0 0 32 36" fill="none" xmlns="http://www.w3.org/2000/svg">
<path d="M26.4449 18.7224C26.4007 14.0605 30.4705 11.7924 30.6566 11.6868C28.3517 8.50029 24.7791 8.0649 23.5237 8.03019C20.5232 7.73077 17.6127 9.73267 16.0842 9.73267C14.5252 9.73267 12.1715 8.05912 9.63473 8.1083C6.37032 8.15603 3.31642 9.94819 1.6415 12.7312C-1.81511 18.4056 0.762859 26.7444 4.07456 31.3311C5.73117 33.5775 7.66693 36.0856 10.2007 35.9974C12.6795 35.9005 13.6054 34.4989 16.5968 34.4989C19.5607 34.4989 20.4302 35.9974 23.0142 35.941C25.6746 35.9005 27.3495 33.6845 28.9481 31.4179C30.8625 28.8432 31.6314 26.3076 31.6619 26.1774C31.5993 26.1572 26.4952 24.31 26.4449 18.7224Z" fill="white"/>
<path d="M21.6958 5.55269C23.0377 4.06844 23.9559 2.04916 23.701 0C21.7588 0.0760456 19.3298 1.18821 17.931 2.63987C16.6935 3.91907 15.588 6.01575 15.8736 7.98751C18.0554 8.13145 20.2955 7.01385 21.6958 5.55269Z" fill="white"/>
</svg>
