<svg width="25" height="24" viewBox="0 0 25 24" fill="none" xmlns="http://www.w3.org/2000/svg">
<path d="M7.40422 12.1529C6.50959 11.1012 4.93181 10.9739 3.88014 11.8685C2.82847 12.7631 2.70116 14.3409 3.59578 15.3926L7.40422 12.1529ZM21.5785 6.88911C22.3457 5.74116 22.0371 4.18864 20.8891 3.42145C19.7412 2.65427 18.1886 2.96294 17.4215 4.11089L21.5785 6.88911ZM5.5 13.7727C3.59578 15.3926 3.59586 15.3927 3.59595 15.3928C3.59601 15.3929 3.59611 15.393 3.59622 15.3931C3.59642 15.3933 3.59669 15.3937 3.59702 15.394C3.59768 15.3948 3.59858 15.3959 3.59972 15.3972C3.602 15.3999 3.60524 15.4037 3.60941 15.4086C3.61775 15.4184 3.62981 15.4325 3.64538 15.4507C3.6765 15.4871 3.72164 15.5398 3.77899 15.6064C3.89362 15.7396 4.05732 15.929 4.25551 16.1559C4.6507 16.6084 5.18842 17.2162 5.75053 17.8279C6.30533 18.4317 6.91466 19.0729 7.44579 19.5761C7.70566 19.8224 7.99471 20.0815 8.27735 20.2942C8.41578 20.3984 8.60716 20.5331 8.83119 20.6527C8.97682 20.7303 9.48503 21 10.1667 21V16C10.7676 16 11.1688 16.2327 11.1846 16.2412C11.2789 16.2914 11.3177 16.3246 11.2844 16.2995C11.2236 16.2538 11.0926 16.1435 10.8847 15.9466C10.4804 15.5634 9.96336 15.0229 9.43215 14.4448C8.90826 13.8747 8.40031 13.3007 8.02133 12.8668C7.83244 12.6505 7.67692 12.4706 7.56912 12.3453C7.51525 12.2827 7.47336 12.2338 7.44526 12.2009C7.43122 12.1845 7.42062 12.1721 7.4137 12.164C7.41025 12.1599 7.40771 12.157 7.40612 12.1551C7.40532 12.1542 7.40476 12.1535 7.40445 12.1531C7.40429 12.1529 7.40419 12.1528 7.40415 12.1528C7.40413 12.1528 7.40415 12.1528 7.40414 12.1528C7.40417 12.1528 7.40422 12.1529 5.5 13.7727ZM10.1667 21C10.6673 21 11.0456 20.8524 11.2249 20.7721C11.4271 20.6815 11.5821 20.5816 11.6777 20.5151C11.8677 20.3829 12.018 20.245 12.1101 20.1566C12.3039 19.9703 12.4965 19.7521 12.6653 19.5517C13.0146 19.1368 13.4431 18.5802 13.9042 17.9594C14.8345 16.7069 15.9998 15.0548 17.13 13.4242C18.2636 11.7887 19.3754 10.1554 20.203 8.93218C20.617 8.32024 20.9605 7.81015 21.2006 7.45279C21.3206 7.27409 21.4149 7.13354 21.4792 7.03748C21.5114 6.98946 21.5361 6.95255 21.5528 6.92756C21.5612 6.91506 21.5676 6.90554 21.5719 6.8991C21.574 6.89588 21.5757 6.89343 21.5768 6.89176C21.5773 6.89093 21.5778 6.89029 21.5781 6.88985C21.5782 6.88963 21.5783 6.88944 21.5784 6.88933C21.5785 6.8892 21.5785 6.88911 19.5 5.5C17.4215 4.11089 17.4214 4.1109 17.4214 4.11097C17.4213 4.11105 17.4213 4.11117 17.4211 4.11134C17.4209 4.11169 17.4206 4.11223 17.4201 4.11297C17.4191 4.11445 17.4176 4.11671 17.4155 4.11974C17.4115 4.1258 17.4054 4.13493 17.3973 4.14703C17.3811 4.17123 17.3569 4.20732 17.3253 4.25451C17.2621 4.34888 17.169 4.48763 17.0503 4.6644C16.8127 5.01797 16.4724 5.52351 16.0618 6.13032C15.2402 7.34464 14.1397 8.96128 13.0206 10.5758C11.8982 12.1952 10.7705 13.7931 9.8903 14.9781C9.44613 15.576 9.08998 16.035 8.84065 16.3311C8.78052 16.4025 8.7325 16.4574 8.6958 16.4978C8.65729 16.5402 8.64171 16.5551 8.64558 16.5514C8.64824 16.5489 8.66243 16.5353 8.68679 16.5145C8.70939 16.4952 8.75587 16.4568 8.8227 16.4103C8.88299 16.3684 9.00631 16.2872 9.18055 16.2091C9.33197 16.1413 9.68616 16 10.1667 16V21Z" fill="#F99676"/>
</svg>
