<svg width="13" height="13" viewBox="0 0 13 13" fill="none" xmlns="http://www.w3.org/2000/svg">
<path d="M0.888881 0.780729C1.25114 0.418468 1.83829 0.418468 2.20035 0.780729L6.57201 5.15242L10.9437 0.780729C11.3059 0.418468 11.8931 0.418468 12.2551 0.780729C12.6174 1.14299 12.6174 1.73014 12.2551 2.09221L7.88348 6.4639L12.2551 10.8356C12.6174 11.1979 12.6174 11.785 12.2551 12.1471C11.8929 12.5093 11.3057 12.5091 10.9437 12.1471L6.57201 7.77538L2.20035 12.1471C1.83809 12.5091 1.25095 12.5091 0.888881 12.1471C0.526623 11.7848 0.526623 11.1977 0.888881 10.8356L5.26054 6.4639L0.888881 2.09221C0.526623 1.72995 0.526623 1.1428 0.888881 0.780729Z" fill="black"/>
</svg>
