<svg width="16" height="16" viewBox="0 0 16 16" fill="none" xmlns="http://www.w3.org/2000/svg">
<path d="M9.09625 8.01047L15.2755 1.86497C15.5718 1.57172 15.5718 1.09697 15.2755 0.804471C14.98 0.511221 14.5 0.511221 14.2045 0.804471L8.0305 6.94472L1.7995 0.712971C1.504 0.416721 1.024 0.416721 0.7285 0.712971C0.433 1.00997 0.433 1.49072 0.7285 1.78697L6.955 8.01422L0.706 14.2287C0.4105 14.522 0.4105 14.9967 0.706 15.2892C1.0015 15.5825 1.4815 15.5825 1.777 15.2892L8.02075 9.07997L14.227 15.287C14.5225 15.5832 15.0025 15.5832 15.298 15.287C15.5935 14.99 15.5935 14.5092 15.298 14.213L9.09625 8.01047Z" fill="white"/>
</svg>
