<svg width="36" height="24" viewBox="0 0 36 24" fill="none" xmlns="http://www.w3.org/2000/svg">
<path fill-rule="evenodd" clip-rule="evenodd" d="M35.0447 12C35.0447 11.6685 34.913 11.3505 34.6786 11.1161C34.4442 10.8817 34.1262 10.75 33.7947 10.75H4.31221L12.1797 2.88499C12.2959 2.76877 12.3881 2.6308 12.451 2.47895C12.5139 2.3271 12.5463 2.16435 12.5463 1.99999C12.5463 1.83563 12.5139 1.67288 12.451 1.52103C12.3881 1.36918 12.2959 1.23121 12.1797 1.11499C12.0635 0.998772 11.9255 0.906582 11.7737 0.843684C11.6218 0.780786 11.4591 0.748413 11.2947 0.748413C11.1304 0.748413 10.9676 0.780786 10.8158 0.843684C10.6639 0.906582 10.5259 0.998772 10.4097 1.11499L0.409715 11.115C0.293307 11.2311 0.20095 11.369 0.137934 11.5209C0.0749175 11.6728 0.0424805 11.8356 0.0424805 12C0.0424805 12.1644 0.0749175 12.3272 0.137934 12.4791C0.20095 12.6309 0.293307 12.7689 0.409715 12.885L10.4097 22.885C10.5259 23.0012 10.6639 23.0934 10.8158 23.1563C10.9676 23.2192 11.1304 23.2516 11.2947 23.2516C11.4591 23.2516 11.6218 23.2192 11.7737 23.1563C11.9255 23.0934 12.0635 23.0012 12.1797 22.885C12.2959 22.7688 12.3881 22.6308 12.451 22.479C12.5139 22.3271 12.5463 22.1644 12.5463 22C12.5463 21.8356 12.5139 21.6729 12.451 21.521C12.3881 21.3692 12.2959 21.2312 12.1797 21.115L4.31221 13.25H33.7947C34.1262 13.25 34.4442 13.1183 34.6786 12.8839C34.913 12.6495 35.0447 12.3315 35.0447 12Z" fill="#6A6A6A"/>
</svg>
