<svg width="24" height="24" viewBox="0 0 24 24" fill="none" xmlns="http://www.w3.org/2000/svg">
<path fill-rule="evenodd" clip-rule="evenodd" d="M22 12C22 12.3788 21.8683 12.7421 21.6339 13.01C21.3995 13.2778 21.0816 13.4283 20.7501 13.4283L6.26926 13.4283L11.6362 19.5586C11.7524 19.6914 11.8445 19.8491 11.9074 20.0226C11.9703 20.1961 12.0027 20.3821 12.0027 20.5699C12.0027 20.7577 11.9703 20.9437 11.9074 21.1172C11.8445 21.2907 11.7524 21.4483 11.6362 21.5811C11.52 21.7139 11.382 21.8193 11.2302 21.8911C11.0783 21.963 10.9156 22 10.7513 22C10.5869 22 10.4242 21.963 10.2723 21.8911C10.1205 21.8193 9.98256 21.7139 9.86635 21.5811L2.36719 13.0112C2.2508 12.8786 2.15845 12.721 2.09544 12.5474C2.03243 12.3739 2 12.1879 2 12C2 11.8121 2.03243 11.6261 2.09544 11.4526C2.15845 11.279 2.2508 11.1214 2.36719 10.9888L9.86635 2.41887C9.98256 2.28607 10.1205 2.18073 10.2724 2.10886C10.4242 2.03699 10.5869 2 10.7513 2C10.9156 2 11.0783 2.03699 11.2302 2.10886C11.382 2.18073 11.52 2.28607 11.6362 2.41887C11.8708 2.68707 12.0027 3.05083 12.0027 3.43012C12.0027 3.61792 11.9703 3.80389 11.9074 3.9774C11.8445 4.15091 11.7524 4.30857 11.6362 4.44136L6.26926 10.5717L20.7501 10.5717C21.0816 10.5717 21.3995 10.7222 21.6339 10.99C21.8683 11.2579 22 11.6212 22 12Z" fill="#6A6A6A"/>
</svg>
