<svg width="24" height="24" viewBox="0 0 24 24" fill="none" xmlns="http://www.w3.org/2000/svg">
<path fill-rule="evenodd" clip-rule="evenodd" d="M2 12C2 12.3788 2.13168 12.7421 2.36608 13.01C2.60047 13.2778 2.91838 13.4283 3.24986 13.4283L17.7307 13.4283L12.3638 19.5586C12.2476 19.6914 12.1555 19.8491 12.0926 20.0226C12.0297 20.1961 11.9973 20.3821 11.9973 20.5699C11.9973 20.7577 12.0297 20.9437 12.0926 21.1172C12.1555 21.2907 12.2476 21.4483 12.3638 21.5811C12.48 21.7139 12.618 21.8193 12.7698 21.8911C12.9217 21.963 13.0844 22 13.2487 22C13.4131 22 13.5758 21.963 13.7277 21.8911C13.8795 21.8193 14.0174 21.7139 14.1336 21.5811L21.6328 13.0112C21.7492 12.8786 21.8415 12.721 21.9046 12.5474C21.9676 12.3739 22 12.1879 22 12C22 11.8121 21.9676 11.6261 21.9046 11.4526C21.8415 11.279 21.7492 11.1214 21.6328 10.9888L14.1336 2.41887C14.0174 2.28607 13.8795 2.18073 13.7276 2.10886C13.5758 2.03699 13.4131 2 13.2487 2C13.0844 2 12.9217 2.03699 12.7698 2.10886C12.618 2.18073 12.48 2.28607 12.3638 2.41887C12.1292 2.68707 11.9973 3.05083 11.9973 3.43012C11.9973 3.61792 12.0297 3.80389 12.0926 3.9774C12.1555 4.15091 12.2476 4.30857 12.3638 4.44136L17.7307 10.5717L3.24986 10.5717C2.91838 10.5717 2.60047 10.7222 2.36608 10.99C2.13168 11.2579 2 11.6212 2 12Z" fill="#6A6A6A"/>
</svg>
