<?xml version="1.0" encoding="utf-8"?>
<!DOCTYPE svg PUBLIC "-//W3C//DTD SVG 1.1//EN" "http://www.w3.org/Graphics/SVG/1.1/DTD/svg11.dtd">
<svg version="1.1" id="Layer_1" xmlns="http://www.w3.org/2000/svg" xmlns:xlink="http://www.w3.org/1999/xlink" x="0px" y="0px"
width="1147px" height="1147px" viewBox="0 0 1147 1147" enable-background="new 0 0 1147 1147" xml:space="preserve">
<rect x="0" y="0" width="1147" height="1147" fill="rgb(255,255,255)" /><g transform="translate(62,62)"><g transform="translate(248,0) scale(0.31,0.31)"><g transform="" style="fill: rgb(0, 0, 0);">
<rect width="100" height="100"/>
</g></g><g transform="translate(310,0) scale(0.31,0.31)"><g transform="" style="fill: rgb(0, 0, 0);">
<rect width="100" height="100"/>
</g></g><g transform="translate(341,0) scale(0.31,0.31)"><g transform="" style="fill: rgb(0, 0, 0);">
<rect width="100" height="100"/>
</g></g><g transform="translate(434,0) scale(0.31,0.31)"><g transform="" style="fill: rgb(0, 0, 0);">
<rect width="100" height="100"/>
</g></g><g transform="translate(496,0) scale(0.31,0.31)"><g transform="" style="fill: rgb(0, 0, 0);">
<rect width="100" height="100"/>
</g></g><g transform="translate(527,0) scale(0.31,0.31)"><g transform="" style="fill: rgb(0, 0, 0);">
<rect width="100" height="100"/>
</g></g><g transform="translate(558,0) scale(0.31,0.31)"><g transform="" style="fill: rgb(0, 0, 0);">
<rect width="100" height="100"/>
</g></g><g transform="translate(651,0) scale(0.31,0.31)"><g transform="" style="fill: rgb(0, 0, 0);">
<rect width="100" height="100"/>
</g></g><g transform="translate(682,0) scale(0.31,0.31)"><g transform="" style="fill: rgb(0, 0, 0);">
<rect width="100" height="100"/>
</g></g><g transform="translate(310,31) scale(0.31,0.31)"><g transform="" style="fill: rgb(0, 0, 0);">
<rect width="100" height="100"/>
</g></g><g transform="translate(341,31) scale(0.31,0.31)"><g transform="" style="fill: rgb(0, 0, 0);">
<rect width="100" height="100"/>
</g></g><g transform="translate(372,31) scale(0.31,0.31)"><g transform="" style="fill: rgb(0, 0, 0);">
<rect width="100" height="100"/>
</g></g><g transform="translate(403,31) scale(0.31,0.31)"><g transform="" style="fill: rgb(0, 0, 0);">
<rect width="100" height="100"/>
</g></g><g transform="translate(434,31) scale(0.31,0.31)"><g transform="" style="fill: rgb(0, 0, 0);">
<rect width="100" height="100"/>
</g></g><g transform="translate(620,31) scale(0.31,0.31)"><g transform="" style="fill: rgb(0, 0, 0);">
<rect width="100" height="100"/>
</g></g><g transform="translate(248,62) scale(0.31,0.31)"><g transform="" style="fill: rgb(0, 0, 0);">
<rect width="100" height="100"/>
</g></g><g transform="translate(310,62) scale(0.31,0.31)"><g transform="" style="fill: rgb(0, 0, 0);">
<rect width="100" height="100"/>
</g></g><g transform="translate(341,62) scale(0.31,0.31)"><g transform="" style="fill: rgb(0, 0, 0);">
<rect width="100" height="100"/>
</g></g><g transform="translate(372,62) scale(0.31,0.31)"><g transform="" style="fill: rgb(0, 0, 0);">
<rect width="100" height="100"/>
</g></g><g transform="translate(434,62) scale(0.31,0.31)"><g transform="" style="fill: rgb(0, 0, 0);">
<rect width="100" height="100"/>
</g></g><g transform="translate(465,62) scale(0.31,0.31)"><g transform="" style="fill: rgb(0, 0, 0);">
<rect width="100" height="100"/>
</g></g><g transform="translate(496,62) scale(0.31,0.31)"><g transform="" style="fill: rgb(0, 0, 0);">
<rect width="100" height="100"/>
</g></g><g transform="translate(527,62) scale(0.31,0.31)"><g transform="" style="fill: rgb(0, 0, 0);">
<rect width="100" height="100"/>
</g></g><g transform="translate(558,62) scale(0.31,0.31)"><g transform="" style="fill: rgb(0, 0, 0);">
<rect width="100" height="100"/>
</g></g><g transform="translate(651,62) scale(0.31,0.31)"><g transform="" style="fill: rgb(0, 0, 0);">
<rect width="100" height="100"/>
</g></g><g transform="translate(279,93) scale(0.31,0.31)"><g transform="" style="fill: rgb(0, 0, 0);">
<rect width="100" height="100"/>
</g></g><g transform="translate(372,93) scale(0.31,0.31)"><g transform="" style="fill: rgb(0, 0, 0);">
<rect width="100" height="100"/>
</g></g><g transform="translate(434,93) scale(0.31,0.31)"><g transform="" style="fill: rgb(0, 0, 0);">
<rect width="100" height="100"/>
</g></g><g transform="translate(496,93) scale(0.31,0.31)"><g transform="" style="fill: rgb(0, 0, 0);">
<rect width="100" height="100"/>
</g></g><g transform="translate(527,93) scale(0.31,0.31)"><g transform="" style="fill: rgb(0, 0, 0);">
<rect width="100" height="100"/>
</g></g><g transform="translate(589,93) scale(0.31,0.31)"><g transform="" style="fill: rgb(0, 0, 0);">
<rect width="100" height="100"/>
</g></g><g transform="translate(620,93) scale(0.31,0.31)"><g transform="" style="fill: rgb(0, 0, 0);">
<rect width="100" height="100"/>
</g></g><g transform="translate(651,93) scale(0.31,0.31)"><g transform="" style="fill: rgb(0, 0, 0);">
<rect width="100" height="100"/>
</g></g><g transform="translate(713,93) scale(0.31,0.31)"><g transform="" style="fill: rgb(0, 0, 0);">
<rect width="100" height="100"/>
</g></g><g transform="translate(744,93) scale(0.31,0.31)"><g transform="" style="fill: rgb(0, 0, 0);">
<rect width="100" height="100"/>
</g></g><g transform="translate(341,124) scale(0.31,0.31)"><g transform="" style="fill: rgb(0, 0, 0);">
<rect width="100" height="100"/>
</g></g><g transform="translate(434,124) scale(0.31,0.31)"><g transform="" style="fill: rgb(0, 0, 0);">
<rect width="100" height="100"/>
</g></g><g transform="translate(465,124) scale(0.31,0.31)"><g transform="" style="fill: rgb(0, 0, 0);">
<rect width="100" height="100"/>
</g></g><g transform="translate(496,124) scale(0.31,0.31)"><g transform="" style="fill: rgb(0, 0, 0);">
<rect width="100" height="100"/>
</g></g><g transform="translate(620,124) scale(0.31,0.31)"><g transform="" style="fill: rgb(0, 0, 0);">
<rect width="100" height="100"/>
</g></g><g transform="translate(651,124) scale(0.31,0.31)"><g transform="" style="fill: rgb(0, 0, 0);">
<rect width="100" height="100"/>
</g></g><g transform="translate(744,124) scale(0.31,0.31)"><g transform="" style="fill: rgb(0, 0, 0);">
<rect width="100" height="100"/>
</g></g><g transform="translate(248,155) scale(0.31,0.31)"><g transform="" style="fill: rgb(0, 0, 0);">
<rect width="100" height="100"/>
</g></g><g transform="translate(279,155) scale(0.31,0.31)"><g transform="" style="fill: rgb(0, 0, 0);">
<rect width="100" height="100"/>
</g></g><g transform="translate(310,155) scale(0.31,0.31)"><g transform="" style="fill: rgb(0, 0, 0);">
<rect width="100" height="100"/>
</g></g><g transform="translate(403,155) scale(0.31,0.31)"><g transform="" style="fill: rgb(0, 0, 0);">
<rect width="100" height="100"/>
</g></g><g transform="translate(434,155) scale(0.31,0.31)"><g transform="" style="fill: rgb(0, 0, 0);">
<rect width="100" height="100"/>
</g></g><g transform="translate(496,155) scale(0.31,0.31)"><g transform="" style="fill: rgb(0, 0, 0);">
<rect width="100" height="100"/>
</g></g><g transform="translate(558,155) scale(0.31,0.31)"><g transform="" style="fill: rgb(0, 0, 0);">
<rect width="100" height="100"/>
</g></g><g transform="translate(620,155) scale(0.31,0.31)"><g transform="" style="fill: rgb(0, 0, 0);">
<rect width="100" height="100"/>
</g></g><g transform="translate(248,186) scale(0.31,0.31)"><g transform="" style="fill: rgb(0, 0, 0);">
<rect width="100" height="100"/>
</g></g><g transform="translate(310,186) scale(0.31,0.31)"><g transform="" style="fill: rgb(0, 0, 0);">
<rect width="100" height="100"/>
</g></g><g transform="translate(372,186) scale(0.31,0.31)"><g transform="" style="fill: rgb(0, 0, 0);">
<rect width="100" height="100"/>
</g></g><g transform="translate(434,186) scale(0.31,0.31)"><g transform="" style="fill: rgb(0, 0, 0);">
<rect width="100" height="100"/>
</g></g><g transform="translate(496,186) scale(0.31,0.31)"><g transform="" style="fill: rgb(0, 0, 0);">
<rect width="100" height="100"/>
</g></g><g transform="translate(558,186) scale(0.31,0.31)"><g transform="" style="fill: rgb(0, 0, 0);">
<rect width="100" height="100"/>
</g></g><g transform="translate(620,186) scale(0.31,0.31)"><g transform="" style="fill: rgb(0, 0, 0);">
<rect width="100" height="100"/>
</g></g><g transform="translate(682,186) scale(0.31,0.31)"><g transform="" style="fill: rgb(0, 0, 0);">
<rect width="100" height="100"/>
</g></g><g transform="translate(744,186) scale(0.31,0.31)"><g transform="" style="fill: rgb(0, 0, 0);">
<rect width="100" height="100"/>
</g></g><g transform="translate(310,217) scale(0.31,0.31)"><g transform="" style="fill: rgb(0, 0, 0);">
<rect width="100" height="100"/>
</g></g><g transform="translate(372,217) scale(0.31,0.31)"><g transform="" style="fill: rgb(0, 0, 0);">
<rect width="100" height="100"/>
</g></g><g transform="translate(434,217) scale(0.31,0.31)"><g transform="" style="fill: rgb(0, 0, 0);">
<rect width="100" height="100"/>
</g></g><g transform="translate(558,217) scale(0.31,0.31)"><g transform="" style="fill: rgb(0, 0, 0);">
<rect width="100" height="100"/>
</g></g><g transform="translate(589,217) scale(0.31,0.31)"><g transform="" style="fill: rgb(0, 0, 0);">
<rect width="100" height="100"/>
</g></g><g transform="translate(620,217) scale(0.31,0.31)"><g transform="" style="fill: rgb(0, 0, 0);">
<rect width="100" height="100"/>
</g></g><g transform="translate(682,217) scale(0.31,0.31)"><g transform="" style="fill: rgb(0, 0, 0);">
<rect width="100" height="100"/>
</g></g><g transform="translate(744,217) scale(0.31,0.31)"><g transform="" style="fill: rgb(0, 0, 0);">
<rect width="100" height="100"/>
</g></g><g transform="translate(0,248) scale(0.31,0.31)"><g transform="" style="fill: rgb(0, 0, 0);">
<rect width="100" height="100"/>
</g></g><g transform="translate(62,248) scale(0.31,0.31)"><g transform="" style="fill: rgb(0, 0, 0);">
<rect width="100" height="100"/>
</g></g><g transform="translate(186,248) scale(0.31,0.31)"><g transform="" style="fill: rgb(0, 0, 0);">
<rect width="100" height="100"/>
</g></g><g transform="translate(217,248) scale(0.31,0.31)"><g transform="" style="fill: rgb(0, 0, 0);">
<rect width="100" height="100"/>
</g></g><g transform="translate(310,248) scale(0.31,0.31)"><g transform="" style="fill: rgb(0, 0, 0);">
<rect width="100" height="100"/>
</g></g><g transform="translate(465,248) scale(0.31,0.31)"><g transform="" style="fill: rgb(0, 0, 0);">
<rect width="100" height="100"/>
</g></g><g transform="translate(558,248) scale(0.31,0.31)"><g transform="" style="fill: rgb(0, 0, 0);">
<rect width="100" height="100"/>
</g></g><g transform="translate(589,248) scale(0.31,0.31)"><g transform="" style="fill: rgb(0, 0, 0);">
<rect width="100" height="100"/>
</g></g><g transform="translate(620,248) scale(0.31,0.31)"><g transform="" style="fill: rgb(0, 0, 0);">
<rect width="100" height="100"/>
</g></g><g transform="translate(713,248) scale(0.31,0.31)"><g transform="" style="fill: rgb(0, 0, 0);">
<rect width="100" height="100"/>
</g></g><g transform="translate(744,248) scale(0.31,0.31)"><g transform="" style="fill: rgb(0, 0, 0);">
<rect width="100" height="100"/>
</g></g><g transform="translate(837,248) scale(0.31,0.31)"><g transform="" style="fill: rgb(0, 0, 0);">
<rect width="100" height="100"/>
</g></g><g transform="translate(930,248) scale(0.31,0.31)"><g transform="" style="fill: rgb(0, 0, 0);">
<rect width="100" height="100"/>
</g></g><g transform="translate(992,248) scale(0.31,0.31)"><g transform="" style="fill: rgb(0, 0, 0);">
<rect width="100" height="100"/>
</g></g><g transform="translate(31,279) scale(0.31,0.31)"><g transform="" style="fill: rgb(0, 0, 0);">
<rect width="100" height="100"/>
</g></g><g transform="translate(124,279) scale(0.31,0.31)"><g transform="" style="fill: rgb(0, 0, 0);">
<rect width="100" height="100"/>
</g></g><g transform="translate(155,279) scale(0.31,0.31)"><g transform="" style="fill: rgb(0, 0, 0);">
<rect width="100" height="100"/>
</g></g><g transform="translate(248,279) scale(0.31,0.31)"><g transform="" style="fill: rgb(0, 0, 0);">
<rect width="100" height="100"/>
</g></g><g transform="translate(279,279) scale(0.31,0.31)"><g transform="" style="fill: rgb(0, 0, 0);">
<rect width="100" height="100"/>
</g></g><g transform="translate(310,279) scale(0.31,0.31)"><g transform="" style="fill: rgb(0, 0, 0);">
<rect width="100" height="100"/>
</g></g><g transform="translate(434,279) scale(0.31,0.31)"><g transform="" style="fill: rgb(0, 0, 0);">
<rect width="100" height="100"/>
</g></g><g transform="translate(465,279) scale(0.31,0.31)"><g transform="" style="fill: rgb(0, 0, 0);">
<rect width="100" height="100"/>
</g></g><g transform="translate(496,279) scale(0.31,0.31)"><g transform="" style="fill: rgb(0, 0, 0);">
<rect width="100" height="100"/>
</g></g><g transform="translate(589,279) scale(0.31,0.31)"><g transform="" style="fill: rgb(0, 0, 0);">
<rect width="100" height="100"/>
</g></g><g transform="translate(620,279) scale(0.31,0.31)"><g transform="" style="fill: rgb(0, 0, 0);">
<rect width="100" height="100"/>
</g></g><g transform="translate(682,279) scale(0.31,0.31)"><g transform="" style="fill: rgb(0, 0, 0);">
<rect width="100" height="100"/>
</g></g><g transform="translate(713,279) scale(0.31,0.31)"><g transform="" style="fill: rgb(0, 0, 0);">
<rect width="100" height="100"/>
</g></g><g transform="translate(806,279) scale(0.31,0.31)"><g transform="" style="fill: rgb(0, 0, 0);">
<rect width="100" height="100"/>
</g></g><g transform="translate(899,279) scale(0.31,0.31)"><g transform="" style="fill: rgb(0, 0, 0);">
<rect width="100" height="100"/>
</g></g><g transform="translate(992,279) scale(0.31,0.31)"><g transform="" style="fill: rgb(0, 0, 0);">
<rect width="100" height="100"/>
</g></g><g transform="translate(0,310) scale(0.31,0.31)"><g transform="" style="fill: rgb(0, 0, 0);">
<rect width="100" height="100"/>
</g></g><g transform="translate(31,310) scale(0.31,0.31)"><g transform="" style="fill: rgb(0, 0, 0);">
<rect width="100" height="100"/>
</g></g><g transform="translate(124,310) scale(0.31,0.31)"><g transform="" style="fill: rgb(0, 0, 0);">
<rect width="100" height="100"/>
</g></g><g transform="translate(155,310) scale(0.31,0.31)"><g transform="" style="fill: rgb(0, 0, 0);">
<rect width="100" height="100"/>
</g></g><g transform="translate(186,310) scale(0.31,0.31)"><g transform="" style="fill: rgb(0, 0, 0);">
<rect width="100" height="100"/>
</g></g><g transform="translate(217,310) scale(0.31,0.31)"><g transform="" style="fill: rgb(0, 0, 0);">
<rect width="100" height="100"/>
</g></g><g transform="translate(279,310) scale(0.31,0.31)"><g transform="" style="fill: rgb(0, 0, 0);">
<rect width="100" height="100"/>
</g></g><g transform="translate(341,310) scale(0.31,0.31)"><g transform="" style="fill: rgb(0, 0, 0);">
<rect width="100" height="100"/>
</g></g><g transform="translate(372,310) scale(0.31,0.31)"><g transform="" style="fill: rgb(0, 0, 0);">
<rect width="100" height="100"/>
</g></g><g transform="translate(403,310) scale(0.31,0.31)"><g transform="" style="fill: rgb(0, 0, 0);">
<rect width="100" height="100"/>
</g></g><g transform="translate(434,310) scale(0.31,0.31)"><g transform="" style="fill: rgb(0, 0, 0);">
<rect width="100" height="100"/>
</g></g><g transform="translate(465,310) scale(0.31,0.31)"><g transform="" style="fill: rgb(0, 0, 0);">
<rect width="100" height="100"/>
</g></g><g transform="translate(496,310) scale(0.31,0.31)"><g transform="" style="fill: rgb(0, 0, 0);">
<rect width="100" height="100"/>
</g></g><g transform="translate(527,310) scale(0.31,0.31)"><g transform="" style="fill: rgb(0, 0, 0);">
<rect width="100" height="100"/>
</g></g><g transform="translate(589,310) scale(0.31,0.31)"><g transform="" style="fill: rgb(0, 0, 0);">
<rect width="100" height="100"/>
</g></g><g transform="translate(713,310) scale(0.31,0.31)"><g transform="" style="fill: rgb(0, 0, 0);">
<rect width="100" height="100"/>
</g></g><g transform="translate(899,310) scale(0.31,0.31)"><g transform="" style="fill: rgb(0, 0, 0);">
<rect width="100" height="100"/>
</g></g><g transform="translate(930,310) scale(0.31,0.31)"><g transform="" style="fill: rgb(0, 0, 0);">
<rect width="100" height="100"/>
</g></g><g transform="translate(992,310) scale(0.31,0.31)"><g transform="" style="fill: rgb(0, 0, 0);">
<rect width="100" height="100"/>
</g></g><g transform="translate(0,341) scale(0.31,0.31)"><g transform="" style="fill: rgb(0, 0, 0);">
<rect width="100" height="100"/>
</g></g><g transform="translate(31,341) scale(0.31,0.31)"><g transform="" style="fill: rgb(0, 0, 0);">
<rect width="100" height="100"/>
</g></g><g transform="translate(155,341) scale(0.31,0.31)"><g transform="" style="fill: rgb(0, 0, 0);">
<rect width="100" height="100"/>
</g></g><g transform="translate(248,341) scale(0.31,0.31)"><g transform="" style="fill: rgb(0, 0, 0);">
<rect width="100" height="100"/>
</g></g><g transform="translate(279,341) scale(0.31,0.31)"><g transform="" style="fill: rgb(0, 0, 0);">
<rect width="100" height="100"/>
</g></g><g transform="translate(310,341) scale(0.31,0.31)"><g transform="" style="fill: rgb(0, 0, 0);">
<rect width="100" height="100"/>
</g></g><g transform="translate(341,341) scale(0.31,0.31)"><g transform="" style="fill: rgb(0, 0, 0);">
<rect width="100" height="100"/>
</g></g><g transform="translate(372,341) scale(0.31,0.31)"><g transform="" style="fill: rgb(0, 0, 0);">
<rect width="100" height="100"/>
</g></g><g transform="translate(434,341) scale(0.31,0.31)"><g transform="" style="fill: rgb(0, 0, 0);">
<rect width="100" height="100"/>
</g></g><g transform="translate(589,341) scale(0.31,0.31)"><g transform="" style="fill: rgb(0, 0, 0);">
<rect width="100" height="100"/>
</g></g><g transform="translate(713,341) scale(0.31,0.31)"><g transform="" style="fill: rgb(0, 0, 0);">
<rect width="100" height="100"/>
</g></g><g transform="translate(806,341) scale(0.31,0.31)"><g transform="" style="fill: rgb(0, 0, 0);">
<rect width="100" height="100"/>
</g></g><g transform="translate(837,341) scale(0.31,0.31)"><g transform="" style="fill: rgb(0, 0, 0);">
<rect width="100" height="100"/>
</g></g><g transform="translate(868,341) scale(0.31,0.31)"><g transform="" style="fill: rgb(0, 0, 0);">
<rect width="100" height="100"/>
</g></g><g transform="translate(899,341) scale(0.31,0.31)"><g transform="" style="fill: rgb(0, 0, 0);">
<rect width="100" height="100"/>
</g></g><g transform="translate(992,341) scale(0.31,0.31)"><g transform="" style="fill: rgb(0, 0, 0);">
<rect width="100" height="100"/>
</g></g><g transform="translate(31,372) scale(0.31,0.31)"><g transform="" style="fill: rgb(0, 0, 0);">
<rect width="100" height="100"/>
</g></g><g transform="translate(155,372) scale(0.31,0.31)"><g transform="" style="fill: rgb(0, 0, 0);">
<rect width="100" height="100"/>
</g></g><g transform="translate(186,372) scale(0.31,0.31)"><g transform="" style="fill: rgb(0, 0, 0);">
<rect width="100" height="100"/>
</g></g><g transform="translate(279,372) scale(0.31,0.31)"><g transform="" style="fill: rgb(0, 0, 0);">
<rect width="100" height="100"/>
</g></g><g transform="translate(310,372) scale(0.31,0.31)"><g transform="" style="fill: rgb(0, 0, 0);">
<rect width="100" height="100"/>
</g></g><g transform="translate(341,372) scale(0.31,0.31)"><g transform="" style="fill: rgb(0, 0, 0);">
<rect width="100" height="100"/>
</g></g><g transform="translate(403,372) scale(0.31,0.31)"><g transform="" style="fill: rgb(0, 0, 0);">
<rect width="100" height="100"/>
</g></g><g transform="translate(434,372) scale(0.31,0.31)"><g transform="" style="fill: rgb(0, 0, 0);">
<rect width="100" height="100"/>
</g></g><g transform="translate(465,372) scale(0.31,0.31)"><g transform="" style="fill: rgb(0, 0, 0);">
<rect width="100" height="100"/>
</g></g><g transform="translate(496,372) scale(0.31,0.31)"><g transform="" style="fill: rgb(0, 0, 0);">
<rect width="100" height="100"/>
</g></g><g transform="translate(527,372) scale(0.31,0.31)"><g transform="" style="fill: rgb(0, 0, 0);">
<rect width="100" height="100"/>
</g></g><g transform="translate(558,372) scale(0.31,0.31)"><g transform="" style="fill: rgb(0, 0, 0);">
<rect width="100" height="100"/>
</g></g><g transform="translate(589,372) scale(0.31,0.31)"><g transform="" style="fill: rgb(0, 0, 0);">
<rect width="100" height="100"/>
</g></g><g transform="translate(682,372) scale(0.31,0.31)"><g transform="" style="fill: rgb(0, 0, 0);">
<rect width="100" height="100"/>
</g></g><g transform="translate(713,372) scale(0.31,0.31)"><g transform="" style="fill: rgb(0, 0, 0);">
<rect width="100" height="100"/>
</g></g><g transform="translate(744,372) scale(0.31,0.31)"><g transform="" style="fill: rgb(0, 0, 0);">
<rect width="100" height="100"/>
</g></g><g transform="translate(806,372) scale(0.31,0.31)"><g transform="" style="fill: rgb(0, 0, 0);">
<rect width="100" height="100"/>
</g></g><g transform="translate(837,372) scale(0.31,0.31)"><g transform="" style="fill: rgb(0, 0, 0);">
<rect width="100" height="100"/>
</g></g><g transform="translate(961,372) scale(0.31,0.31)"><g transform="" style="fill: rgb(0, 0, 0);">
<rect width="100" height="100"/>
</g></g><g transform="translate(992,372) scale(0.31,0.31)"><g transform="" style="fill: rgb(0, 0, 0);">
<rect width="100" height="100"/>
</g></g><g transform="translate(0,403) scale(0.31,0.31)"><g transform="" style="fill: rgb(0, 0, 0);">
<rect width="100" height="100"/>
</g></g><g transform="translate(62,403) scale(0.31,0.31)"><g transform="" style="fill: rgb(0, 0, 0);">
<rect width="100" height="100"/>
</g></g><g transform="translate(93,403) scale(0.31,0.31)"><g transform="" style="fill: rgb(0, 0, 0);">
<rect width="100" height="100"/>
</g></g><g transform="translate(155,403) scale(0.31,0.31)"><g transform="" style="fill: rgb(0, 0, 0);">
<rect width="100" height="100"/>
</g></g><g transform="translate(310,403) scale(0.31,0.31)"><g transform="" style="fill: rgb(0, 0, 0);">
<rect width="100" height="100"/>
</g></g><g transform="translate(372,403) scale(0.31,0.31)"><g transform="" style="fill: rgb(0, 0, 0);">
<rect width="100" height="100"/>
</g></g><g transform="translate(434,403) scale(0.31,0.31)"><g transform="" style="fill: rgb(0, 0, 0);">
<rect width="100" height="100"/>
</g></g><g transform="translate(496,403) scale(0.31,0.31)"><g transform="" style="fill: rgb(0, 0, 0);">
<rect width="100" height="100"/>
</g></g><g transform="translate(527,403) scale(0.31,0.31)"><g transform="" style="fill: rgb(0, 0, 0);">
<rect width="100" height="100"/>
</g></g><g transform="translate(589,403) scale(0.31,0.31)"><g transform="" style="fill: rgb(0, 0, 0);">
<rect width="100" height="100"/>
</g></g><g transform="translate(682,403) scale(0.31,0.31)"><g transform="" style="fill: rgb(0, 0, 0);">
<rect width="100" height="100"/>
</g></g><g transform="translate(713,403) scale(0.31,0.31)"><g transform="" style="fill: rgb(0, 0, 0);">
<rect width="100" height="100"/>
</g></g><g transform="translate(744,403) scale(0.31,0.31)"><g transform="" style="fill: rgb(0, 0, 0);">
<rect width="100" height="100"/>
</g></g><g transform="translate(806,403) scale(0.31,0.31)"><g transform="" style="fill: rgb(0, 0, 0);">
<rect width="100" height="100"/>
</g></g><g transform="translate(837,403) scale(0.31,0.31)"><g transform="" style="fill: rgb(0, 0, 0);">
<rect width="100" height="100"/>
</g></g><g transform="translate(899,403) scale(0.31,0.31)"><g transform="" style="fill: rgb(0, 0, 0);">
<rect width="100" height="100"/>
</g></g><g transform="translate(930,403) scale(0.31,0.31)"><g transform="" style="fill: rgb(0, 0, 0);">
<rect width="100" height="100"/>
</g></g><g transform="translate(961,403) scale(0.31,0.31)"><g transform="" style="fill: rgb(0, 0, 0);">
<rect width="100" height="100"/>
</g></g><g transform="translate(992,403) scale(0.31,0.31)"><g transform="" style="fill: rgb(0, 0, 0);">
<rect width="100" height="100"/>
</g></g><g transform="translate(62,434) scale(0.31,0.31)"><g transform="" style="fill: rgb(0, 0, 0);">
<rect width="100" height="100"/>
</g></g><g transform="translate(124,434) scale(0.31,0.31)"><g transform="" style="fill: rgb(0, 0, 0);">
<rect width="100" height="100"/>
</g></g><g transform="translate(186,434) scale(0.31,0.31)"><g transform="" style="fill: rgb(0, 0, 0);">
<rect width="100" height="100"/>
</g></g><g transform="translate(217,434) scale(0.31,0.31)"><g transform="" style="fill: rgb(0, 0, 0);">
<rect width="100" height="100"/>
</g></g><g transform="translate(248,434) scale(0.31,0.31)"><g transform="" style="fill: rgb(0, 0, 0);">
<rect width="100" height="100"/>
</g></g><g transform="translate(341,434) scale(0.31,0.31)"><g transform="" style="fill: rgb(0, 0, 0);">
<rect width="100" height="100"/>
</g></g><g transform="translate(496,434) scale(0.31,0.31)"><g transform="" style="fill: rgb(0, 0, 0);">
<rect width="100" height="100"/>
</g></g><g transform="translate(589,434) scale(0.31,0.31)"><g transform="" style="fill: rgb(0, 0, 0);">
<rect width="100" height="100"/>
</g></g><g transform="translate(651,434) scale(0.31,0.31)"><g transform="" style="fill: rgb(0, 0, 0);">
<rect width="100" height="100"/>
</g></g><g transform="translate(682,434) scale(0.31,0.31)"><g transform="" style="fill: rgb(0, 0, 0);">
<rect width="100" height="100"/>
</g></g><g transform="translate(713,434) scale(0.31,0.31)"><g transform="" style="fill: rgb(0, 0, 0);">
<rect width="100" height="100"/>
</g></g><g transform="translate(868,434) scale(0.31,0.31)"><g transform="" style="fill: rgb(0, 0, 0);">
<rect width="100" height="100"/>
</g></g><g transform="translate(992,434) scale(0.31,0.31)"><g transform="" style="fill: rgb(0, 0, 0);">
<rect width="100" height="100"/>
</g></g><g transform="translate(0,465) scale(0.31,0.31)"><g transform="" style="fill: rgb(0, 0, 0);">
<rect width="100" height="100"/>
</g></g><g transform="translate(62,465) scale(0.31,0.31)"><g transform="" style="fill: rgb(0, 0, 0);">
<rect width="100" height="100"/>
</g></g><g transform="translate(93,465) scale(0.31,0.31)"><g transform="" style="fill: rgb(0, 0, 0);">
<rect width="100" height="100"/>
</g></g><g transform="translate(155,465) scale(0.31,0.31)"><g transform="" style="fill: rgb(0, 0, 0);">
<rect width="100" height="100"/>
</g></g><g transform="translate(217,465) scale(0.31,0.31)"><g transform="" style="fill: rgb(0, 0, 0);">
<rect width="100" height="100"/>
</g></g><g transform="translate(341,465) scale(0.31,0.31)"><g transform="" style="fill: rgb(0, 0, 0);">
<rect width="100" height="100"/>
</g></g><g transform="translate(372,465) scale(0.31,0.31)"><g transform="" style="fill: rgb(0, 0, 0);">
<rect width="100" height="100"/>
</g></g><g transform="translate(403,465) scale(0.31,0.31)"><g transform="" style="fill: rgb(0, 0, 0);">
<rect width="100" height="100"/>
</g></g><g transform="translate(434,465) scale(0.31,0.31)"><g transform="" style="fill: rgb(0, 0, 0);">
<rect width="100" height="100"/>
</g></g><g transform="translate(465,465) scale(0.31,0.31)"><g transform="" style="fill: rgb(0, 0, 0);">
<rect width="100" height="100"/>
</g></g><g transform="translate(496,465) scale(0.31,0.31)"><g transform="" style="fill: rgb(0, 0, 0);">
<rect width="100" height="100"/>
</g></g><g transform="translate(558,465) scale(0.31,0.31)"><g transform="" style="fill: rgb(0, 0, 0);">
<rect width="100" height="100"/>
</g></g><g transform="translate(620,465) scale(0.31,0.31)"><g transform="" style="fill: rgb(0, 0, 0);">
<rect width="100" height="100"/>
</g></g><g transform="translate(775,465) scale(0.31,0.31)"><g transform="" style="fill: rgb(0, 0, 0);">
<rect width="100" height="100"/>
</g></g><g transform="translate(806,465) scale(0.31,0.31)"><g transform="" style="fill: rgb(0, 0, 0);">
<rect width="100" height="100"/>
</g></g><g transform="translate(899,465) scale(0.31,0.31)"><g transform="" style="fill: rgb(0, 0, 0);">
<rect width="100" height="100"/>
</g></g><g transform="translate(0,496) scale(0.31,0.31)"><g transform="" style="fill: rgb(0, 0, 0);">
<rect width="100" height="100"/>
</g></g><g transform="translate(93,496) scale(0.31,0.31)"><g transform="" style="fill: rgb(0, 0, 0);">
<rect width="100" height="100"/>
</g></g><g transform="translate(124,496) scale(0.31,0.31)"><g transform="" style="fill: rgb(0, 0, 0);">
<rect width="100" height="100"/>
</g></g><g transform="translate(186,496) scale(0.31,0.31)"><g transform="" style="fill: rgb(0, 0, 0);">
<rect width="100" height="100"/>
</g></g><g transform="translate(248,496) scale(0.31,0.31)"><g transform="" style="fill: rgb(0, 0, 0);">
<rect width="100" height="100"/>
</g></g><g transform="translate(279,496) scale(0.31,0.31)"><g transform="" style="fill: rgb(0, 0, 0);">
<rect width="100" height="100"/>
</g></g><g transform="translate(310,496) scale(0.31,0.31)"><g transform="" style="fill: rgb(0, 0, 0);">
<rect width="100" height="100"/>
</g></g><g transform="translate(403,496) scale(0.31,0.31)"><g transform="" style="fill: rgb(0, 0, 0);">
<rect width="100" height="100"/>
</g></g><g transform="translate(589,496) scale(0.31,0.31)"><g transform="" style="fill: rgb(0, 0, 0);">
<rect width="100" height="100"/>
</g></g><g transform="translate(620,496) scale(0.31,0.31)"><g transform="" style="fill: rgb(0, 0, 0);">
<rect width="100" height="100"/>
</g></g><g transform="translate(806,496) scale(0.31,0.31)"><g transform="" style="fill: rgb(0, 0, 0);">
<rect width="100" height="100"/>
</g></g><g transform="translate(837,496) scale(0.31,0.31)"><g transform="" style="fill: rgb(0, 0, 0);">
<rect width="100" height="100"/>
</g></g><g transform="translate(899,496) scale(0.31,0.31)"><g transform="" style="fill: rgb(0, 0, 0);">
<rect width="100" height="100"/>
</g></g><g transform="translate(961,496) scale(0.31,0.31)"><g transform="" style="fill: rgb(0, 0, 0);">
<rect width="100" height="100"/>
</g></g><g transform="translate(0,527) scale(0.31,0.31)"><g transform="" style="fill: rgb(0, 0, 0);">
<rect width="100" height="100"/>
</g></g><g transform="translate(93,527) scale(0.31,0.31)"><g transform="" style="fill: rgb(0, 0, 0);">
<rect width="100" height="100"/>
</g></g><g transform="translate(155,527) scale(0.31,0.31)"><g transform="" style="fill: rgb(0, 0, 0);">
<rect width="100" height="100"/>
</g></g><g transform="translate(248,527) scale(0.31,0.31)"><g transform="" style="fill: rgb(0, 0, 0);">
<rect width="100" height="100"/>
</g></g><g transform="translate(310,527) scale(0.31,0.31)"><g transform="" style="fill: rgb(0, 0, 0);">
<rect width="100" height="100"/>
</g></g><g transform="translate(403,527) scale(0.31,0.31)"><g transform="" style="fill: rgb(0, 0, 0);">
<rect width="100" height="100"/>
</g></g><g transform="translate(434,527) scale(0.31,0.31)"><g transform="" style="fill: rgb(0, 0, 0);">
<rect width="100" height="100"/>
</g></g><g transform="translate(465,527) scale(0.31,0.31)"><g transform="" style="fill: rgb(0, 0, 0);">
<rect width="100" height="100"/>
</g></g><g transform="translate(496,527) scale(0.31,0.31)"><g transform="" style="fill: rgb(0, 0, 0);">
<rect width="100" height="100"/>
</g></g><g transform="translate(527,527) scale(0.31,0.31)"><g transform="" style="fill: rgb(0, 0, 0);">
<rect width="100" height="100"/>
</g></g><g transform="translate(558,527) scale(0.31,0.31)"><g transform="" style="fill: rgb(0, 0, 0);">
<rect width="100" height="100"/>
</g></g><g transform="translate(589,527) scale(0.31,0.31)"><g transform="" style="fill: rgb(0, 0, 0);">
<rect width="100" height="100"/>
</g></g><g transform="translate(620,527) scale(0.31,0.31)"><g transform="" style="fill: rgb(0, 0, 0);">
<rect width="100" height="100"/>
</g></g><g transform="translate(682,527) scale(0.31,0.31)"><g transform="" style="fill: rgb(0, 0, 0);">
<rect width="100" height="100"/>
</g></g><g transform="translate(713,527) scale(0.31,0.31)"><g transform="" style="fill: rgb(0, 0, 0);">
<rect width="100" height="100"/>
</g></g><g transform="translate(744,527) scale(0.31,0.31)"><g transform="" style="fill: rgb(0, 0, 0);">
<rect width="100" height="100"/>
</g></g><g transform="translate(806,527) scale(0.31,0.31)"><g transform="" style="fill: rgb(0, 0, 0);">
<rect width="100" height="100"/>
</g></g><g transform="translate(899,527) scale(0.31,0.31)"><g transform="" style="fill: rgb(0, 0, 0);">
<rect width="100" height="100"/>
</g></g><g transform="translate(992,527) scale(0.31,0.31)"><g transform="" style="fill: rgb(0, 0, 0);">
<rect width="100" height="100"/>
</g></g><g transform="translate(31,558) scale(0.31,0.31)"><g transform="" style="fill: rgb(0, 0, 0);">
<rect width="100" height="100"/>
</g></g><g transform="translate(62,558) scale(0.31,0.31)"><g transform="" style="fill: rgb(0, 0, 0);">
<rect width="100" height="100"/>
</g></g><g transform="translate(93,558) scale(0.31,0.31)"><g transform="" style="fill: rgb(0, 0, 0);">
<rect width="100" height="100"/>
</g></g><g transform="translate(124,558) scale(0.31,0.31)"><g transform="" style="fill: rgb(0, 0, 0);">
<rect width="100" height="100"/>
</g></g><g transform="translate(186,558) scale(0.31,0.31)"><g transform="" style="fill: rgb(0, 0, 0);">
<rect width="100" height="100"/>
</g></g><g transform="translate(310,558) scale(0.31,0.31)"><g transform="" style="fill: rgb(0, 0, 0);">
<rect width="100" height="100"/>
</g></g><g transform="translate(403,558) scale(0.31,0.31)"><g transform="" style="fill: rgb(0, 0, 0);">
<rect width="100" height="100"/>
</g></g><g transform="translate(434,558) scale(0.31,0.31)"><g transform="" style="fill: rgb(0, 0, 0);">
<rect width="100" height="100"/>
</g></g><g transform="translate(465,558) scale(0.31,0.31)"><g transform="" style="fill: rgb(0, 0, 0);">
<rect width="100" height="100"/>
</g></g><g transform="translate(589,558) scale(0.31,0.31)"><g transform="" style="fill: rgb(0, 0, 0);">
<rect width="100" height="100"/>
</g></g><g transform="translate(620,558) scale(0.31,0.31)"><g transform="" style="fill: rgb(0, 0, 0);">
<rect width="100" height="100"/>
</g></g><g transform="translate(651,558) scale(0.31,0.31)"><g transform="" style="fill: rgb(0, 0, 0);">
<rect width="100" height="100"/>
</g></g><g transform="translate(682,558) scale(0.31,0.31)"><g transform="" style="fill: rgb(0, 0, 0);">
<rect width="100" height="100"/>
</g></g><g transform="translate(713,558) scale(0.31,0.31)"><g transform="" style="fill: rgb(0, 0, 0);">
<rect width="100" height="100"/>
</g></g><g transform="translate(744,558) scale(0.31,0.31)"><g transform="" style="fill: rgb(0, 0, 0);">
<rect width="100" height="100"/>
</g></g><g transform="translate(806,558) scale(0.31,0.31)"><g transform="" style="fill: rgb(0, 0, 0);">
<rect width="100" height="100"/>
</g></g><g transform="translate(837,558) scale(0.31,0.31)"><g transform="" style="fill: rgb(0, 0, 0);">
<rect width="100" height="100"/>
</g></g><g transform="translate(899,558) scale(0.31,0.31)"><g transform="" style="fill: rgb(0, 0, 0);">
<rect width="100" height="100"/>
</g></g><g transform="translate(930,558) scale(0.31,0.31)"><g transform="" style="fill: rgb(0, 0, 0);">
<rect width="100" height="100"/>
</g></g><g transform="translate(992,558) scale(0.31,0.31)"><g transform="" style="fill: rgb(0, 0, 0);">
<rect width="100" height="100"/>
</g></g><g transform="translate(93,589) scale(0.31,0.31)"><g transform="" style="fill: rgb(0, 0, 0);">
<rect width="100" height="100"/>
</g></g><g transform="translate(124,589) scale(0.31,0.31)"><g transform="" style="fill: rgb(0, 0, 0);">
<rect width="100" height="100"/>
</g></g><g transform="translate(217,589) scale(0.31,0.31)"><g transform="" style="fill: rgb(0, 0, 0);">
<rect width="100" height="100"/>
</g></g><g transform="translate(248,589) scale(0.31,0.31)"><g transform="" style="fill: rgb(0, 0, 0);">
<rect width="100" height="100"/>
</g></g><g transform="translate(310,589) scale(0.31,0.31)"><g transform="" style="fill: rgb(0, 0, 0);">
<rect width="100" height="100"/>
</g></g><g transform="translate(341,589) scale(0.31,0.31)"><g transform="" style="fill: rgb(0, 0, 0);">
<rect width="100" height="100"/>
</g></g><g transform="translate(372,589) scale(0.31,0.31)"><g transform="" style="fill: rgb(0, 0, 0);">
<rect width="100" height="100"/>
</g></g><g transform="translate(403,589) scale(0.31,0.31)"><g transform="" style="fill: rgb(0, 0, 0);">
<rect width="100" height="100"/>
</g></g><g transform="translate(527,589) scale(0.31,0.31)"><g transform="" style="fill: rgb(0, 0, 0);">
<rect width="100" height="100"/>
</g></g><g transform="translate(589,589) scale(0.31,0.31)"><g transform="" style="fill: rgb(0, 0, 0);">
<rect width="100" height="100"/>
</g></g><g transform="translate(620,589) scale(0.31,0.31)"><g transform="" style="fill: rgb(0, 0, 0);">
<rect width="100" height="100"/>
</g></g><g transform="translate(775,589) scale(0.31,0.31)"><g transform="" style="fill: rgb(0, 0, 0);">
<rect width="100" height="100"/>
</g></g><g transform="translate(868,589) scale(0.31,0.31)"><g transform="" style="fill: rgb(0, 0, 0);">
<rect width="100" height="100"/>
</g></g><g transform="translate(899,589) scale(0.31,0.31)"><g transform="" style="fill: rgb(0, 0, 0);">
<rect width="100" height="100"/>
</g></g><g transform="translate(961,589) scale(0.31,0.31)"><g transform="" style="fill: rgb(0, 0, 0);">
<rect width="100" height="100"/>
</g></g><g transform="translate(992,589) scale(0.31,0.31)"><g transform="" style="fill: rgb(0, 0, 0);">
<rect width="100" height="100"/>
</g></g><g transform="translate(62,620) scale(0.31,0.31)"><g transform="" style="fill: rgb(0, 0, 0);">
<rect width="100" height="100"/>
</g></g><g transform="translate(93,620) scale(0.31,0.31)"><g transform="" style="fill: rgb(0, 0, 0);">
<rect width="100" height="100"/>
</g></g><g transform="translate(124,620) scale(0.31,0.31)"><g transform="" style="fill: rgb(0, 0, 0);">
<rect width="100" height="100"/>
</g></g><g transform="translate(186,620) scale(0.31,0.31)"><g transform="" style="fill: rgb(0, 0, 0);">
<rect width="100" height="100"/>
</g></g><g transform="translate(248,620) scale(0.31,0.31)"><g transform="" style="fill: rgb(0, 0, 0);">
<rect width="100" height="100"/>
</g></g><g transform="translate(372,620) scale(0.31,0.31)"><g transform="" style="fill: rgb(0, 0, 0);">
<rect width="100" height="100"/>
</g></g><g transform="translate(403,620) scale(0.31,0.31)"><g transform="" style="fill: rgb(0, 0, 0);">
<rect width="100" height="100"/>
</g></g><g transform="translate(465,620) scale(0.31,0.31)"><g transform="" style="fill: rgb(0, 0, 0);">
<rect width="100" height="100"/>
</g></g><g transform="translate(527,620) scale(0.31,0.31)"><g transform="" style="fill: rgb(0, 0, 0);">
<rect width="100" height="100"/>
</g></g><g transform="translate(682,620) scale(0.31,0.31)"><g transform="" style="fill: rgb(0, 0, 0);">
<rect width="100" height="100"/>
</g></g><g transform="translate(713,620) scale(0.31,0.31)"><g transform="" style="fill: rgb(0, 0, 0);">
<rect width="100" height="100"/>
</g></g><g transform="translate(744,620) scale(0.31,0.31)"><g transform="" style="fill: rgb(0, 0, 0);">
<rect width="100" height="100"/>
</g></g><g transform="translate(806,620) scale(0.31,0.31)"><g transform="" style="fill: rgb(0, 0, 0);">
<rect width="100" height="100"/>
</g></g><g transform="translate(837,620) scale(0.31,0.31)"><g transform="" style="fill: rgb(0, 0, 0);">
<rect width="100" height="100"/>
</g></g><g transform="translate(62,651) scale(0.31,0.31)"><g transform="" style="fill: rgb(0, 0, 0);">
<rect width="100" height="100"/>
</g></g><g transform="translate(93,651) scale(0.31,0.31)"><g transform="" style="fill: rgb(0, 0, 0);">
<rect width="100" height="100"/>
</g></g><g transform="translate(341,651) scale(0.31,0.31)"><g transform="" style="fill: rgb(0, 0, 0);">
<rect width="100" height="100"/>
</g></g><g transform="translate(403,651) scale(0.31,0.31)"><g transform="" style="fill: rgb(0, 0, 0);">
<rect width="100" height="100"/>
</g></g><g transform="translate(589,651) scale(0.31,0.31)"><g transform="" style="fill: rgb(0, 0, 0);">
<rect width="100" height="100"/>
</g></g><g transform="translate(682,651) scale(0.31,0.31)"><g transform="" style="fill: rgb(0, 0, 0);">
<rect width="100" height="100"/>
</g></g><g transform="translate(713,651) scale(0.31,0.31)"><g transform="" style="fill: rgb(0, 0, 0);">
<rect width="100" height="100"/>
</g></g><g transform="translate(744,651) scale(0.31,0.31)"><g transform="" style="fill: rgb(0, 0, 0);">
<rect width="100" height="100"/>
</g></g><g transform="translate(775,651) scale(0.31,0.31)"><g transform="" style="fill: rgb(0, 0, 0);">
<rect width="100" height="100"/>
</g></g><g transform="translate(806,651) scale(0.31,0.31)"><g transform="" style="fill: rgb(0, 0, 0);">
<rect width="100" height="100"/>
</g></g><g transform="translate(837,651) scale(0.31,0.31)"><g transform="" style="fill: rgb(0, 0, 0);">
<rect width="100" height="100"/>
</g></g><g transform="translate(992,651) scale(0.31,0.31)"><g transform="" style="fill: rgb(0, 0, 0);">
<rect width="100" height="100"/>
</g></g><g transform="translate(0,682) scale(0.31,0.31)"><g transform="" style="fill: rgb(0, 0, 0);">
<rect width="100" height="100"/>
</g></g><g transform="translate(31,682) scale(0.31,0.31)"><g transform="" style="fill: rgb(0, 0, 0);">
<rect width="100" height="100"/>
</g></g><g transform="translate(124,682) scale(0.31,0.31)"><g transform="" style="fill: rgb(0, 0, 0);">
<rect width="100" height="100"/>
</g></g><g transform="translate(155,682) scale(0.31,0.31)"><g transform="" style="fill: rgb(0, 0, 0);">
<rect width="100" height="100"/>
</g></g><g transform="translate(186,682) scale(0.31,0.31)"><g transform="" style="fill: rgb(0, 0, 0);">
<rect width="100" height="100"/>
</g></g><g transform="translate(248,682) scale(0.31,0.31)"><g transform="" style="fill: rgb(0, 0, 0);">
<rect width="100" height="100"/>
</g></g><g transform="translate(279,682) scale(0.31,0.31)"><g transform="" style="fill: rgb(0, 0, 0);">
<rect width="100" height="100"/>
</g></g><g transform="translate(310,682) scale(0.31,0.31)"><g transform="" style="fill: rgb(0, 0, 0);">
<rect width="100" height="100"/>
</g></g><g transform="translate(341,682) scale(0.31,0.31)"><g transform="" style="fill: rgb(0, 0, 0);">
<rect width="100" height="100"/>
</g></g><g transform="translate(372,682) scale(0.31,0.31)"><g transform="" style="fill: rgb(0, 0, 0);">
<rect width="100" height="100"/>
</g></g><g transform="translate(434,682) scale(0.31,0.31)"><g transform="" style="fill: rgb(0, 0, 0);">
<rect width="100" height="100"/>
</g></g><g transform="translate(465,682) scale(0.31,0.31)"><g transform="" style="fill: rgb(0, 0, 0);">
<rect width="100" height="100"/>
</g></g><g transform="translate(527,682) scale(0.31,0.31)"><g transform="" style="fill: rgb(0, 0, 0);">
<rect width="100" height="100"/>
</g></g><g transform="translate(589,682) scale(0.31,0.31)"><g transform="" style="fill: rgb(0, 0, 0);">
<rect width="100" height="100"/>
</g></g><g transform="translate(620,682) scale(0.31,0.31)"><g transform="" style="fill: rgb(0, 0, 0);">
<rect width="100" height="100"/>
</g></g><g transform="translate(651,682) scale(0.31,0.31)"><g transform="" style="fill: rgb(0, 0, 0);">
<rect width="100" height="100"/>
</g></g><g transform="translate(682,682) scale(0.31,0.31)"><g transform="" style="fill: rgb(0, 0, 0);">
<rect width="100" height="100"/>
</g></g><g transform="translate(713,682) scale(0.31,0.31)"><g transform="" style="fill: rgb(0, 0, 0);">
<rect width="100" height="100"/>
</g></g><g transform="translate(775,682) scale(0.31,0.31)"><g transform="" style="fill: rgb(0, 0, 0);">
<rect width="100" height="100"/>
</g></g><g transform="translate(806,682) scale(0.31,0.31)"><g transform="" style="fill: rgb(0, 0, 0);">
<rect width="100" height="100"/>
</g></g><g transform="translate(868,682) scale(0.31,0.31)"><g transform="" style="fill: rgb(0, 0, 0);">
<rect width="100" height="100"/>
</g></g><g transform="translate(992,682) scale(0.31,0.31)"><g transform="" style="fill: rgb(0, 0, 0);">
<rect width="100" height="100"/>
</g></g><g transform="translate(62,713) scale(0.31,0.31)"><g transform="" style="fill: rgb(0, 0, 0);">
<rect width="100" height="100"/>
</g></g><g transform="translate(217,713) scale(0.31,0.31)"><g transform="" style="fill: rgb(0, 0, 0);">
<rect width="100" height="100"/>
</g></g><g transform="translate(248,713) scale(0.31,0.31)"><g transform="" style="fill: rgb(0, 0, 0);">
<rect width="100" height="100"/>
</g></g><g transform="translate(279,713) scale(0.31,0.31)"><g transform="" style="fill: rgb(0, 0, 0);">
<rect width="100" height="100"/>
</g></g><g transform="translate(310,713) scale(0.31,0.31)"><g transform="" style="fill: rgb(0, 0, 0);">
<rect width="100" height="100"/>
</g></g><g transform="translate(434,713) scale(0.31,0.31)"><g transform="" style="fill: rgb(0, 0, 0);">
<rect width="100" height="100"/>
</g></g><g transform="translate(558,713) scale(0.31,0.31)"><g transform="" style="fill: rgb(0, 0, 0);">
<rect width="100" height="100"/>
</g></g><g transform="translate(713,713) scale(0.31,0.31)"><g transform="" style="fill: rgb(0, 0, 0);">
<rect width="100" height="100"/>
</g></g><g transform="translate(744,713) scale(0.31,0.31)"><g transform="" style="fill: rgb(0, 0, 0);">
<rect width="100" height="100"/>
</g></g><g transform="translate(775,713) scale(0.31,0.31)"><g transform="" style="fill: rgb(0, 0, 0);">
<rect width="100" height="100"/>
</g></g><g transform="translate(837,713) scale(0.31,0.31)"><g transform="" style="fill: rgb(0, 0, 0);">
<rect width="100" height="100"/>
</g></g><g transform="translate(899,713) scale(0.31,0.31)"><g transform="" style="fill: rgb(0, 0, 0);">
<rect width="100" height="100"/>
</g></g><g transform="translate(992,713) scale(0.31,0.31)"><g transform="" style="fill: rgb(0, 0, 0);">
<rect width="100" height="100"/>
</g></g><g transform="translate(0,744) scale(0.31,0.31)"><g transform="" style="fill: rgb(0, 0, 0);">
<rect width="100" height="100"/>
</g></g><g transform="translate(31,744) scale(0.31,0.31)"><g transform="" style="fill: rgb(0, 0, 0);">
<rect width="100" height="100"/>
</g></g><g transform="translate(62,744) scale(0.31,0.31)"><g transform="" style="fill: rgb(0, 0, 0);">
<rect width="100" height="100"/>
</g></g><g transform="translate(186,744) scale(0.31,0.31)"><g transform="" style="fill: rgb(0, 0, 0);">
<rect width="100" height="100"/>
</g></g><g transform="translate(217,744) scale(0.31,0.31)"><g transform="" style="fill: rgb(0, 0, 0);">
<rect width="100" height="100"/>
</g></g><g transform="translate(248,744) scale(0.31,0.31)"><g transform="" style="fill: rgb(0, 0, 0);">
<rect width="100" height="100"/>
</g></g><g transform="translate(310,744) scale(0.31,0.31)"><g transform="" style="fill: rgb(0, 0, 0);">
<rect width="100" height="100"/>
</g></g><g transform="translate(403,744) scale(0.31,0.31)"><g transform="" style="fill: rgb(0, 0, 0);">
<rect width="100" height="100"/>
</g></g><g transform="translate(465,744) scale(0.31,0.31)"><g transform="" style="fill: rgb(0, 0, 0);">
<rect width="100" height="100"/>
</g></g><g transform="translate(496,744) scale(0.31,0.31)"><g transform="" style="fill: rgb(0, 0, 0);">
<rect width="100" height="100"/>
</g></g><g transform="translate(620,744) scale(0.31,0.31)"><g transform="" style="fill: rgb(0, 0, 0);">
<rect width="100" height="100"/>
</g></g><g transform="translate(744,744) scale(0.31,0.31)"><g transform="" style="fill: rgb(0, 0, 0);">
<rect width="100" height="100"/>
</g></g><g transform="translate(775,744) scale(0.31,0.31)"><g transform="" style="fill: rgb(0, 0, 0);">
<rect width="100" height="100"/>
</g></g><g transform="translate(806,744) scale(0.31,0.31)"><g transform="" style="fill: rgb(0, 0, 0);">
<rect width="100" height="100"/>
</g></g><g transform="translate(837,744) scale(0.31,0.31)"><g transform="" style="fill: rgb(0, 0, 0);">
<rect width="100" height="100"/>
</g></g><g transform="translate(868,744) scale(0.31,0.31)"><g transform="" style="fill: rgb(0, 0, 0);">
<rect width="100" height="100"/>
</g></g><g transform="translate(899,744) scale(0.31,0.31)"><g transform="" style="fill: rgb(0, 0, 0);">
<rect width="100" height="100"/>
</g></g><g transform="translate(992,744) scale(0.31,0.31)"><g transform="" style="fill: rgb(0, 0, 0);">
<rect width="100" height="100"/>
</g></g><g transform="translate(248,775) scale(0.31,0.31)"><g transform="" style="fill: rgb(0, 0, 0);">
<rect width="100" height="100"/>
</g></g><g transform="translate(310,775) scale(0.31,0.31)"><g transform="" style="fill: rgb(0, 0, 0);">
<rect width="100" height="100"/>
</g></g><g transform="translate(341,775) scale(0.31,0.31)"><g transform="" style="fill: rgb(0, 0, 0);">
<rect width="100" height="100"/>
</g></g><g transform="translate(372,775) scale(0.31,0.31)"><g transform="" style="fill: rgb(0, 0, 0);">
<rect width="100" height="100"/>
</g></g><g transform="translate(465,775) scale(0.31,0.31)"><g transform="" style="fill: rgb(0, 0, 0);">
<rect width="100" height="100"/>
</g></g><g transform="translate(496,775) scale(0.31,0.31)"><g transform="" style="fill: rgb(0, 0, 0);">
<rect width="100" height="100"/>
</g></g><g transform="translate(558,775) scale(0.31,0.31)"><g transform="" style="fill: rgb(0, 0, 0);">
<rect width="100" height="100"/>
</g></g><g transform="translate(589,775) scale(0.31,0.31)"><g transform="" style="fill: rgb(0, 0, 0);">
<rect width="100" height="100"/>
</g></g><g transform="translate(713,775) scale(0.31,0.31)"><g transform="" style="fill: rgb(0, 0, 0);">
<rect width="100" height="100"/>
</g></g><g transform="translate(744,775) scale(0.31,0.31)"><g transform="" style="fill: rgb(0, 0, 0);">
<rect width="100" height="100"/>
</g></g><g transform="translate(868,775) scale(0.31,0.31)"><g transform="" style="fill: rgb(0, 0, 0);">
<rect width="100" height="100"/>
</g></g><g transform="translate(992,775) scale(0.31,0.31)"><g transform="" style="fill: rgb(0, 0, 0);">
<rect width="100" height="100"/>
</g></g><g transform="translate(248,806) scale(0.31,0.31)"><g transform="" style="fill: rgb(0, 0, 0);">
<rect width="100" height="100"/>
</g></g><g transform="translate(279,806) scale(0.31,0.31)"><g transform="" style="fill: rgb(0, 0, 0);">
<rect width="100" height="100"/>
</g></g><g transform="translate(372,806) scale(0.31,0.31)"><g transform="" style="fill: rgb(0, 0, 0);">
<rect width="100" height="100"/>
</g></g><g transform="translate(403,806) scale(0.31,0.31)"><g transform="" style="fill: rgb(0, 0, 0);">
<rect width="100" height="100"/>
</g></g><g transform="translate(434,806) scale(0.31,0.31)"><g transform="" style="fill: rgb(0, 0, 0);">
<rect width="100" height="100"/>
</g></g><g transform="translate(465,806) scale(0.31,0.31)"><g transform="" style="fill: rgb(0, 0, 0);">
<rect width="100" height="100"/>
</g></g><g transform="translate(527,806) scale(0.31,0.31)"><g transform="" style="fill: rgb(0, 0, 0);">
<rect width="100" height="100"/>
</g></g><g transform="translate(558,806) scale(0.31,0.31)"><g transform="" style="fill: rgb(0, 0, 0);">
<rect width="100" height="100"/>
</g></g><g transform="translate(589,806) scale(0.31,0.31)"><g transform="" style="fill: rgb(0, 0, 0);">
<rect width="100" height="100"/>
</g></g><g transform="translate(682,806) scale(0.31,0.31)"><g transform="" style="fill: rgb(0, 0, 0);">
<rect width="100" height="100"/>
</g></g><g transform="translate(744,806) scale(0.31,0.31)"><g transform="" style="fill: rgb(0, 0, 0);">
<rect width="100" height="100"/>
</g></g><g transform="translate(806,806) scale(0.31,0.31)"><g transform="" style="fill: rgb(0, 0, 0);">
<rect width="100" height="100"/>
</g></g><g transform="translate(868,806) scale(0.31,0.31)"><g transform="" style="fill: rgb(0, 0, 0);">
<rect width="100" height="100"/>
</g></g><g transform="translate(899,806) scale(0.31,0.31)"><g transform="" style="fill: rgb(0, 0, 0);">
<rect width="100" height="100"/>
</g></g><g transform="translate(930,806) scale(0.31,0.31)"><g transform="" style="fill: rgb(0, 0, 0);">
<rect width="100" height="100"/>
</g></g><g transform="translate(992,806) scale(0.31,0.31)"><g transform="" style="fill: rgb(0, 0, 0);">
<rect width="100" height="100"/>
</g></g><g transform="translate(279,837) scale(0.31,0.31)"><g transform="" style="fill: rgb(0, 0, 0);">
<rect width="100" height="100"/>
</g></g><g transform="translate(341,837) scale(0.31,0.31)"><g transform="" style="fill: rgb(0, 0, 0);">
<rect width="100" height="100"/>
</g></g><g transform="translate(372,837) scale(0.31,0.31)"><g transform="" style="fill: rgb(0, 0, 0);">
<rect width="100" height="100"/>
</g></g><g transform="translate(403,837) scale(0.31,0.31)"><g transform="" style="fill: rgb(0, 0, 0);">
<rect width="100" height="100"/>
</g></g><g transform="translate(465,837) scale(0.31,0.31)"><g transform="" style="fill: rgb(0, 0, 0);">
<rect width="100" height="100"/>
</g></g><g transform="translate(496,837) scale(0.31,0.31)"><g transform="" style="fill: rgb(0, 0, 0);">
<rect width="100" height="100"/>
</g></g><g transform="translate(558,837) scale(0.31,0.31)"><g transform="" style="fill: rgb(0, 0, 0);">
<rect width="100" height="100"/>
</g></g><g transform="translate(620,837) scale(0.31,0.31)"><g transform="" style="fill: rgb(0, 0, 0);">
<rect width="100" height="100"/>
</g></g><g transform="translate(682,837) scale(0.31,0.31)"><g transform="" style="fill: rgb(0, 0, 0);">
<rect width="100" height="100"/>
</g></g><g transform="translate(713,837) scale(0.31,0.31)"><g transform="" style="fill: rgb(0, 0, 0);">
<rect width="100" height="100"/>
</g></g><g transform="translate(744,837) scale(0.31,0.31)"><g transform="" style="fill: rgb(0, 0, 0);">
<rect width="100" height="100"/>
</g></g><g transform="translate(868,837) scale(0.31,0.31)"><g transform="" style="fill: rgb(0, 0, 0);">
<rect width="100" height="100"/>
</g></g><g transform="translate(899,837) scale(0.31,0.31)"><g transform="" style="fill: rgb(0, 0, 0);">
<rect width="100" height="100"/>
</g></g><g transform="translate(992,837) scale(0.31,0.31)"><g transform="" style="fill: rgb(0, 0, 0);">
<rect width="100" height="100"/>
</g></g><g transform="translate(310,868) scale(0.31,0.31)"><g transform="" style="fill: rgb(0, 0, 0);">
<rect width="100" height="100"/>
</g></g><g transform="translate(341,868) scale(0.31,0.31)"><g transform="" style="fill: rgb(0, 0, 0);">
<rect width="100" height="100"/>
</g></g><g transform="translate(403,868) scale(0.31,0.31)"><g transform="" style="fill: rgb(0, 0, 0);">
<rect width="100" height="100"/>
</g></g><g transform="translate(434,868) scale(0.31,0.31)"><g transform="" style="fill: rgb(0, 0, 0);">
<rect width="100" height="100"/>
</g></g><g transform="translate(496,868) scale(0.31,0.31)"><g transform="" style="fill: rgb(0, 0, 0);">
<rect width="100" height="100"/>
</g></g><g transform="translate(527,868) scale(0.31,0.31)"><g transform="" style="fill: rgb(0, 0, 0);">
<rect width="100" height="100"/>
</g></g><g transform="translate(558,868) scale(0.31,0.31)"><g transform="" style="fill: rgb(0, 0, 0);">
<rect width="100" height="100"/>
</g></g><g transform="translate(589,868) scale(0.31,0.31)"><g transform="" style="fill: rgb(0, 0, 0);">
<rect width="100" height="100"/>
</g></g><g transform="translate(682,868) scale(0.31,0.31)"><g transform="" style="fill: rgb(0, 0, 0);">
<rect width="100" height="100"/>
</g></g><g transform="translate(713,868) scale(0.31,0.31)"><g transform="" style="fill: rgb(0, 0, 0);">
<rect width="100" height="100"/>
</g></g><g transform="translate(744,868) scale(0.31,0.31)"><g transform="" style="fill: rgb(0, 0, 0);">
<rect width="100" height="100"/>
</g></g><g transform="translate(775,868) scale(0.31,0.31)"><g transform="" style="fill: rgb(0, 0, 0);">
<rect width="100" height="100"/>
</g></g><g transform="translate(806,868) scale(0.31,0.31)"><g transform="" style="fill: rgb(0, 0, 0);">
<rect width="100" height="100"/>
</g></g><g transform="translate(837,868) scale(0.31,0.31)"><g transform="" style="fill: rgb(0, 0, 0);">
<rect width="100" height="100"/>
</g></g><g transform="translate(868,868) scale(0.31,0.31)"><g transform="" style="fill: rgb(0, 0, 0);">
<rect width="100" height="100"/>
</g></g><g transform="translate(961,868) scale(0.31,0.31)"><g transform="" style="fill: rgb(0, 0, 0);">
<rect width="100" height="100"/>
</g></g><g transform="translate(992,868) scale(0.31,0.31)"><g transform="" style="fill: rgb(0, 0, 0);">
<rect width="100" height="100"/>
</g></g><g transform="translate(279,899) scale(0.31,0.31)"><g transform="" style="fill: rgb(0, 0, 0);">
<rect width="100" height="100"/>
</g></g><g transform="translate(434,899) scale(0.31,0.31)"><g transform="" style="fill: rgb(0, 0, 0);">
<rect width="100" height="100"/>
</g></g><g transform="translate(496,899) scale(0.31,0.31)"><g transform="" style="fill: rgb(0, 0, 0);">
<rect width="100" height="100"/>
</g></g><g transform="translate(558,899) scale(0.31,0.31)"><g transform="" style="fill: rgb(0, 0, 0);">
<rect width="100" height="100"/>
</g></g><g transform="translate(589,899) scale(0.31,0.31)"><g transform="" style="fill: rgb(0, 0, 0);">
<rect width="100" height="100"/>
</g></g><g transform="translate(651,899) scale(0.31,0.31)"><g transform="" style="fill: rgb(0, 0, 0);">
<rect width="100" height="100"/>
</g></g><g transform="translate(682,899) scale(0.31,0.31)"><g transform="" style="fill: rgb(0, 0, 0);">
<rect width="100" height="100"/>
</g></g><g transform="translate(775,899) scale(0.31,0.31)"><g transform="" style="fill: rgb(0, 0, 0);">
<rect width="100" height="100"/>
</g></g><g transform="translate(837,899) scale(0.31,0.31)"><g transform="" style="fill: rgb(0, 0, 0);">
<rect width="100" height="100"/>
</g></g><g transform="translate(868,899) scale(0.31,0.31)"><g transform="" style="fill: rgb(0, 0, 0);">
<rect width="100" height="100"/>
</g></g><g transform="translate(899,899) scale(0.31,0.31)"><g transform="" style="fill: rgb(0, 0, 0);">
<rect width="100" height="100"/>
</g></g><g transform="translate(930,899) scale(0.31,0.31)"><g transform="" style="fill: rgb(0, 0, 0);">
<rect width="100" height="100"/>
</g></g><g transform="translate(961,899) scale(0.31,0.31)"><g transform="" style="fill: rgb(0, 0, 0);">
<rect width="100" height="100"/>
</g></g><g transform="translate(992,899) scale(0.31,0.31)"><g transform="" style="fill: rgb(0, 0, 0);">
<rect width="100" height="100"/>
</g></g><g transform="translate(248,930) scale(0.31,0.31)"><g transform="" style="fill: rgb(0, 0, 0);">
<rect width="100" height="100"/>
</g></g><g transform="translate(310,930) scale(0.31,0.31)"><g transform="" style="fill: rgb(0, 0, 0);">
<rect width="100" height="100"/>
</g></g><g transform="translate(372,930) scale(0.31,0.31)"><g transform="" style="fill: rgb(0, 0, 0);">
<rect width="100" height="100"/>
</g></g><g transform="translate(403,930) scale(0.31,0.31)"><g transform="" style="fill: rgb(0, 0, 0);">
<rect width="100" height="100"/>
</g></g><g transform="translate(496,930) scale(0.31,0.31)"><g transform="" style="fill: rgb(0, 0, 0);">
<rect width="100" height="100"/>
</g></g><g transform="translate(558,930) scale(0.31,0.31)"><g transform="" style="fill: rgb(0, 0, 0);">
<rect width="100" height="100"/>
</g></g><g transform="translate(589,930) scale(0.31,0.31)"><g transform="" style="fill: rgb(0, 0, 0);">
<rect width="100" height="100"/>
</g></g><g transform="translate(651,930) scale(0.31,0.31)"><g transform="" style="fill: rgb(0, 0, 0);">
<rect width="100" height="100"/>
</g></g><g transform="translate(713,930) scale(0.31,0.31)"><g transform="" style="fill: rgb(0, 0, 0);">
<rect width="100" height="100"/>
</g></g><g transform="translate(744,930) scale(0.31,0.31)"><g transform="" style="fill: rgb(0, 0, 0);">
<rect width="100" height="100"/>
</g></g><g transform="translate(837,930) scale(0.31,0.31)"><g transform="" style="fill: rgb(0, 0, 0);">
<rect width="100" height="100"/>
</g></g><g transform="translate(868,930) scale(0.31,0.31)"><g transform="" style="fill: rgb(0, 0, 0);">
<rect width="100" height="100"/>
</g></g><g transform="translate(899,930) scale(0.31,0.31)"><g transform="" style="fill: rgb(0, 0, 0);">
<rect width="100" height="100"/>
</g></g><g transform="translate(930,930) scale(0.31,0.31)"><g transform="" style="fill: rgb(0, 0, 0);">
<rect width="100" height="100"/>
</g></g><g transform="translate(961,930) scale(0.31,0.31)"><g transform="" style="fill: rgb(0, 0, 0);">
<rect width="100" height="100"/>
</g></g><g transform="translate(992,930) scale(0.31,0.31)"><g transform="" style="fill: rgb(0, 0, 0);">
<rect width="100" height="100"/>
</g></g><g transform="translate(341,961) scale(0.31,0.31)"><g transform="" style="fill: rgb(0, 0, 0);">
<rect width="100" height="100"/>
</g></g><g transform="translate(465,961) scale(0.31,0.31)"><g transform="" style="fill: rgb(0, 0, 0);">
<rect width="100" height="100"/>
</g></g><g transform="translate(496,961) scale(0.31,0.31)"><g transform="" style="fill: rgb(0, 0, 0);">
<rect width="100" height="100"/>
</g></g><g transform="translate(558,961) scale(0.31,0.31)"><g transform="" style="fill: rgb(0, 0, 0);">
<rect width="100" height="100"/>
</g></g><g transform="translate(589,961) scale(0.31,0.31)"><g transform="" style="fill: rgb(0, 0, 0);">
<rect width="100" height="100"/>
</g></g><g transform="translate(744,961) scale(0.31,0.31)"><g transform="" style="fill: rgb(0, 0, 0);">
<rect width="100" height="100"/>
</g></g><g transform="translate(837,961) scale(0.31,0.31)"><g transform="" style="fill: rgb(0, 0, 0);">
<rect width="100" height="100"/>
</g></g><g transform="translate(868,961) scale(0.31,0.31)"><g transform="" style="fill: rgb(0, 0, 0);">
<rect width="100" height="100"/>
</g></g><g transform="translate(899,961) scale(0.31,0.31)"><g transform="" style="fill: rgb(0, 0, 0);">
<rect width="100" height="100"/>
</g></g><g transform="translate(248,992) scale(0.31,0.31)"><g transform="" style="fill: rgb(0, 0, 0);">
<rect width="100" height="100"/>
</g></g><g transform="translate(279,992) scale(0.31,0.31)"><g transform="" style="fill: rgb(0, 0, 0);">
<rect width="100" height="100"/>
</g></g><g transform="translate(310,992) scale(0.31,0.31)"><g transform="" style="fill: rgb(0, 0, 0);">
<rect width="100" height="100"/>
</g></g><g transform="translate(403,992) scale(0.31,0.31)"><g transform="" style="fill: rgb(0, 0, 0);">
<rect width="100" height="100"/>
</g></g><g transform="translate(496,992) scale(0.31,0.31)"><g transform="" style="fill: rgb(0, 0, 0);">
<rect width="100" height="100"/>
</g></g><g transform="translate(558,992) scale(0.31,0.31)"><g transform="" style="fill: rgb(0, 0, 0);">
<rect width="100" height="100"/>
</g></g><g transform="translate(589,992) scale(0.31,0.31)"><g transform="" style="fill: rgb(0, 0, 0);">
<rect width="100" height="100"/>
</g></g><g transform="translate(620,992) scale(0.31,0.31)"><g transform="" style="fill: rgb(0, 0, 0);">
<rect width="100" height="100"/>
</g></g><g transform="translate(713,992) scale(0.31,0.31)"><g transform="" style="fill: rgb(0, 0, 0);">
<rect width="100" height="100"/>
</g></g><g transform="translate(744,992) scale(0.31,0.31)"><g transform="" style="fill: rgb(0, 0, 0);">
<rect width="100" height="100"/>
</g></g><g transform="translate(775,992) scale(0.31,0.31)"><g transform="" style="fill: rgb(0, 0, 0);">
<rect width="100" height="100"/>
</g></g><g transform="translate(837,992) scale(0.31,0.31)"><g transform="" style="fill: rgb(0, 0, 0);">
<rect width="100" height="100"/>
</g></g><g transform="translate(868,992) scale(0.31,0.31)"><g transform="" style="fill: rgb(0, 0, 0);">
<rect width="100" height="100"/>
</g></g><g transform="translate(899,992) scale(0.31,0.31)"><g transform="" style="fill: rgb(0, 0, 0);">
<rect width="100" height="100"/>
</g></g><g transform="translate(992,992) scale(0.31,0.31)"><g transform="" style="fill: rgb(0, 0, 0);">
<rect width="100" height="100"/>
</g></g><g transform="translate(0,0) scale(2.1274509803922, 2.1274509803922)"><g transform="" style="fill: rgb(0, 0, 0);">
<g>
	<path style="fill:none;" d="M85.5,17.444c0-0.807,0.131-1.583,0.366-2.311c-0.728,0.236-1.505,0.367-2.31,0.367
		c-1.791,0-3.434-0.629-4.723-1.676c-1.29,1.047-2.932,1.676-4.723,1.676s-3.435-0.629-4.723-1.676
		C68.1,14.871,66.457,15.5,64.667,15.5c-1.791,0-3.433-0.629-4.724-1.676c-1.289,1.047-2.93,1.676-4.721,1.676
		s-3.433-0.629-4.723-1.676c-1.29,1.047-2.932,1.676-4.722,1.676c-1.791,0-3.433-0.629-4.723-1.676
		c-1.289,1.047-2.931,1.676-4.722,1.676s-3.433-0.629-4.722-1.676c-1.289,1.047-2.931,1.676-4.722,1.676s-3.433-0.629-4.723-1.676
		c-1.289,1.047-2.931,1.676-4.722,1.676c-0.807,0-1.583-0.131-2.311-0.367c0.236,0.729,0.367,1.504,0.367,2.311
		c0,1.791-0.629,3.433-1.676,4.722c1.047,1.29,1.676,2.933,1.676,4.723s-0.629,3.433-1.676,4.722
		c1.047,1.289,1.676,2.932,1.676,4.722s-0.629,3.433-1.676,4.722c1.047,1.29,1.676,2.933,1.676,4.723s-0.629,3.432-1.676,4.722
		c1.047,1.289,1.676,2.932,1.676,4.723s-0.629,3.435-1.676,4.723c1.047,1.289,1.676,2.931,1.676,4.722
		c0,1.79-0.629,3.433-1.676,4.722c1.047,1.291,1.676,2.932,1.676,4.723c0,1.789-0.629,3.433-1.676,4.722
		c1.047,1.29,1.676,2.933,1.676,4.724c0,0.808-0.131,1.582-0.367,2.312c0.729-0.237,1.504-0.368,2.311-0.368
		c1.791,0,3.433,0.629,4.722,1.676c1.29-1.047,2.933-1.676,4.723-1.676s3.433,0.629,4.722,1.676
		c1.289-1.047,2.932-1.676,4.722-1.676s3.433,0.629,4.722,1.676c1.29-1.047,2.933-1.676,4.723-1.676s3.432,0.629,4.722,1.676
		c1.29-1.047,2.932-1.676,4.723-1.676s3.435,0.629,4.723,1.676c1.289-1.047,2.931-1.676,4.722-1.676c1.79,0,3.433,0.629,4.722,1.676
		c1.291-1.047,2.932-1.676,4.723-1.676s3.433,0.629,4.723,1.676c1.289-1.047,2.932-1.676,4.723-1.676
		c0.807,0,1.582,0.131,2.312,0.366c-0.237-0.728-0.368-1.505-0.368-2.31c0-1.791,0.629-3.434,1.676-4.723
		c-1.047-1.29-1.676-2.932-1.676-4.723s0.629-3.435,1.676-4.723C86.129,68.1,85.5,66.457,85.5,64.667
		c0-1.791,0.629-3.433,1.676-4.724c-1.047-1.289-1.676-2.93-1.676-4.721s0.629-3.433,1.676-4.723
		c-1.047-1.29-1.676-2.932-1.676-4.722c0-1.791,0.629-3.433,1.676-4.723c-1.047-1.289-1.676-2.931-1.676-4.722
		s0.629-3.433,1.676-4.722c-1.047-1.289-1.676-2.931-1.676-4.722s0.629-3.433,1.676-4.723C86.129,20.877,85.5,19.235,85.5,17.444z"
		/>
	<path d="M98.824,12.722C99.871,11.433,100.5,9.791,100.5,8c0-3.884-2.951-7.077-6.732-7.461C93.516,0.513,93.259,0.5,93,0.5
		s-0.516,0.013-0.768,0.039c-1.491,0.152-2.854,0.742-3.955,1.637C86.988,1.129,85.346,0.5,83.557,0.5
		c-1.791,0-3.434,0.629-4.723,1.676C77.544,1.129,75.902,0.5,74.111,0.5s-3.435,0.629-4.723,1.676C68.1,1.129,66.457,0.5,64.667,0.5
		c-1.791,0-3.433,0.629-4.724,1.676C58.654,1.129,57.014,0.5,55.223,0.5S51.79,1.129,50.5,2.176C49.21,1.129,47.568,0.5,45.778,0.5
		c-1.791,0-3.433,0.629-4.723,1.676C39.766,1.129,38.124,0.5,36.333,0.5S32.9,1.129,31.611,2.176C30.322,1.129,28.68,0.5,26.889,0.5
		s-3.433,0.629-4.723,1.676C20.877,1.129,19.235,0.5,17.444,0.5s-3.433,0.629-4.722,1.676c-1.103-0.895-2.464-1.486-3.955-1.637
		C8.515,0.513,8.259,0.5,8,0.5S7.485,0.513,7.233,0.539C3.451,0.923,0.5,4.116,0.5,8c0,1.791,0.629,3.433,1.676,4.722
		C1.129,14.012,0.5,15.654,0.5,17.444s0.629,3.433,1.676,4.722C1.129,23.456,0.5,25.099,0.5,26.889s0.629,3.433,1.676,4.722
		C1.129,32.9,0.5,34.543,0.5,36.333s0.629,3.433,1.676,4.722C1.129,42.345,0.5,43.988,0.5,45.778S1.129,49.21,2.176,50.5
		C1.129,51.79,0.5,53.432,0.5,55.223s0.629,3.435,1.676,4.723C1.129,61.234,0.5,62.876,0.5,64.667c0,1.79,0.629,3.433,1.676,4.722
		C1.129,70.68,0.5,72.32,0.5,74.111c0,1.789,0.629,3.433,1.676,4.722C1.129,80.123,0.5,81.766,0.5,83.557s0.629,3.434,1.676,4.723
		C1.129,89.566,0.5,91.21,0.5,93c0,4.143,3.358,7.5,7.5,7.5c1.791,0,3.433-0.629,4.722-1.676c1.29,1.047,2.932,1.676,4.722,1.676
		s3.433-0.629,4.722-1.676c1.29,1.047,2.932,1.676,4.723,1.676s3.433-0.629,4.722-1.676c1.289,1.047,2.932,1.676,4.722,1.676
		s3.433-0.629,4.722-1.676c1.29,1.047,2.932,1.676,4.723,1.676c1.79,0,3.432-0.629,4.722-1.676c1.29,1.047,2.932,1.676,4.723,1.676
		s3.435-0.629,4.723-1.676c1.289,1.047,2.933,1.676,4.724,1.676c1.79,0,3.435-0.629,4.724-1.676c1.287,1.047,2.93,1.676,4.721,1.676
		s3.433-0.629,4.723-1.676c1.289,1.047,2.932,1.676,4.723,1.676c1.789,0,3.434-0.629,4.721-1.676
		c1.287,1.047,2.93,1.676,4.721,1.676c4.143,0,7.5-3.357,7.5-7.5c0-1.791-0.629-3.434-1.676-4.723
		c1.047-1.289,1.676-2.932,1.676-4.723c0-1.789-0.629-3.434-1.676-4.723c1.047-1.289,1.676-2.932,1.676-4.723
		s-0.629-3.434-1.676-4.724c1.047-1.286,1.676-2.93,1.676-4.72c0-1.791-0.629-3.434-1.676-4.725
		c1.047-1.289,1.676-2.932,1.676-4.721c0-1.791-0.629-3.434-1.676-4.724c1.047-1.29,1.676-2.932,1.676-4.722
		c0-1.791-0.629-3.433-1.676-4.723c1.047-1.29,1.676-2.932,1.676-4.722s-0.629-3.433-1.676-4.722
		c1.047-1.29,1.676-2.932,1.676-4.722c0-1.79-0.629-3.433-1.676-4.723c1.047-1.29,1.676-2.932,1.676-4.722
		S99.871,14.012,98.824,12.722z M87.176,31.611C86.129,32.9,85.5,34.543,85.5,36.333s0.629,3.433,1.676,4.722
		c-1.047,1.29-1.676,2.933-1.676,4.723s0.629,3.432,1.676,4.722c-1.047,1.29-1.676,2.932-1.676,4.723s0.629,3.435,1.676,4.723
		c-1.047,1.289-1.676,2.931-1.676,4.722c0,1.79,0.629,3.433,1.676,4.722C86.129,70.68,85.5,72.32,85.5,74.111
		s0.629,3.433,1.676,4.723c-1.047,1.289-1.676,2.932-1.676,4.723c0,0.808,0.131,1.582,0.366,2.312
		c-0.728-0.237-1.505-0.368-2.31-0.368c-1.791,0-3.434,0.629-4.723,1.676c-1.29-1.047-2.932-1.676-4.723-1.676
		s-3.435,0.629-4.723,1.676C68.1,86.129,66.457,85.5,64.667,85.5c-1.791,0-3.433,0.629-4.724,1.676
		c-1.289-1.047-2.93-1.676-4.721-1.676s-3.433,0.629-4.723,1.676c-1.29-1.047-2.932-1.676-4.722-1.676
		c-1.791,0-3.433,0.629-4.723,1.676c-1.289-1.047-2.931-1.676-4.722-1.676s-3.433,0.629-4.722,1.676
		c-1.289-1.047-2.931-1.676-4.722-1.676s-3.433,0.629-4.723,1.676c-1.289-1.047-2.931-1.676-4.722-1.676
		c-0.807,0-1.583,0.131-2.311,0.366c0.236-0.728,0.367-1.505,0.367-2.31c0-1.791-0.629-3.434-1.676-4.724
		c1.047-1.289,1.676-2.933,1.676-4.722c0-1.791-0.629-3.435-1.676-4.723c1.047-1.289,1.676-2.932,1.676-4.722
		c0-1.791-0.629-3.433-1.676-4.724c1.047-1.289,1.676-2.93,1.676-4.721s-0.629-3.434-1.676-4.723
		c1.047-1.29,1.676-2.932,1.676-4.722c0-1.791-0.629-3.433-1.676-4.723c1.047-1.289,1.676-2.931,1.676-4.722
		s-0.629-3.433-1.676-4.722c1.047-1.289,1.676-2.931,1.676-4.722s-0.629-3.433-1.676-4.723c1.047-1.289,1.676-2.931,1.676-4.722
		c0-0.807-0.131-1.583-0.367-2.311c0.729,0.236,1.504,0.367,2.311,0.367c1.791,0,3.433-0.629,4.722-1.676
		c1.29,1.047,2.933,1.676,4.723,1.676s3.433-0.629,4.722-1.676c1.289,1.047,2.932,1.676,4.722,1.676s3.433-0.629,4.722-1.676
		c1.29,1.047,2.933,1.676,4.723,1.676s3.432-0.629,4.722-1.676c1.29,1.047,2.932,1.676,4.723,1.676s3.435-0.629,4.723-1.676
		c1.289,1.047,2.931,1.676,4.722,1.676c1.79,0,3.433-0.629,4.722-1.676c1.291,1.047,2.932,1.676,4.723,1.676
		s3.433-0.629,4.723-1.676c1.289,1.047,2.932,1.676,4.723,1.676c0.807,0,1.582-0.131,2.312-0.367
		c-0.237,0.729-0.368,1.504-0.368,2.311c0,1.791,0.629,3.433,1.676,4.722c-1.047,1.29-1.676,2.933-1.676,4.723
		S86.129,30.322,87.176,31.611z"/>
</g>
</g></g><g transform="translate(806,0) scale(2.1274509803922, 2.1274509803922)"><g transform="" style="fill: rgb(0, 0, 0);">
<g>
	<path style="fill:none;" d="M85.5,17.444c0-0.807,0.131-1.583,0.366-2.311c-0.728,0.236-1.505,0.367-2.31,0.367
		c-1.791,0-3.434-0.629-4.723-1.676c-1.29,1.047-2.932,1.676-4.723,1.676s-3.435-0.629-4.723-1.676
		C68.1,14.871,66.457,15.5,64.667,15.5c-1.791,0-3.433-0.629-4.724-1.676c-1.289,1.047-2.93,1.676-4.721,1.676
		s-3.433-0.629-4.723-1.676c-1.29,1.047-2.932,1.676-4.722,1.676c-1.791,0-3.433-0.629-4.723-1.676
		c-1.289,1.047-2.931,1.676-4.722,1.676s-3.433-0.629-4.722-1.676c-1.289,1.047-2.931,1.676-4.722,1.676s-3.433-0.629-4.723-1.676
		c-1.289,1.047-2.931,1.676-4.722,1.676c-0.807,0-1.583-0.131-2.311-0.367c0.236,0.729,0.367,1.504,0.367,2.311
		c0,1.791-0.629,3.433-1.676,4.722c1.047,1.29,1.676,2.933,1.676,4.723s-0.629,3.433-1.676,4.722
		c1.047,1.289,1.676,2.932,1.676,4.722s-0.629,3.433-1.676,4.722c1.047,1.29,1.676,2.933,1.676,4.723s-0.629,3.432-1.676,4.722
		c1.047,1.289,1.676,2.932,1.676,4.723s-0.629,3.435-1.676,4.723c1.047,1.289,1.676,2.931,1.676,4.722
		c0,1.79-0.629,3.433-1.676,4.722c1.047,1.291,1.676,2.932,1.676,4.723c0,1.789-0.629,3.433-1.676,4.722
		c1.047,1.29,1.676,2.933,1.676,4.724c0,0.808-0.131,1.582-0.367,2.312c0.729-0.237,1.504-0.368,2.311-0.368
		c1.791,0,3.433,0.629,4.722,1.676c1.29-1.047,2.933-1.676,4.723-1.676s3.433,0.629,4.722,1.676
		c1.289-1.047,2.932-1.676,4.722-1.676s3.433,0.629,4.722,1.676c1.29-1.047,2.933-1.676,4.723-1.676s3.432,0.629,4.722,1.676
		c1.29-1.047,2.932-1.676,4.723-1.676s3.435,0.629,4.723,1.676c1.289-1.047,2.931-1.676,4.722-1.676c1.79,0,3.433,0.629,4.722,1.676
		c1.291-1.047,2.932-1.676,4.723-1.676s3.433,0.629,4.723,1.676c1.289-1.047,2.932-1.676,4.723-1.676
		c0.807,0,1.582,0.131,2.312,0.366c-0.237-0.728-0.368-1.505-0.368-2.31c0-1.791,0.629-3.434,1.676-4.723
		c-1.047-1.29-1.676-2.932-1.676-4.723s0.629-3.435,1.676-4.723C86.129,68.1,85.5,66.457,85.5,64.667
		c0-1.791,0.629-3.433,1.676-4.724c-1.047-1.289-1.676-2.93-1.676-4.721s0.629-3.433,1.676-4.723
		c-1.047-1.29-1.676-2.932-1.676-4.722c0-1.791,0.629-3.433,1.676-4.723c-1.047-1.289-1.676-2.931-1.676-4.722
		s0.629-3.433,1.676-4.722c-1.047-1.289-1.676-2.931-1.676-4.722s0.629-3.433,1.676-4.723C86.129,20.877,85.5,19.235,85.5,17.444z"
		/>
	<path d="M98.824,12.722C99.871,11.433,100.5,9.791,100.5,8c0-3.884-2.951-7.077-6.732-7.461C93.516,0.513,93.259,0.5,93,0.5
		s-0.516,0.013-0.768,0.039c-1.491,0.152-2.854,0.742-3.955,1.637C86.988,1.129,85.346,0.5,83.557,0.5
		c-1.791,0-3.434,0.629-4.723,1.676C77.544,1.129,75.902,0.5,74.111,0.5s-3.435,0.629-4.723,1.676C68.1,1.129,66.457,0.5,64.667,0.5
		c-1.791,0-3.433,0.629-4.724,1.676C58.654,1.129,57.014,0.5,55.223,0.5S51.79,1.129,50.5,2.176C49.21,1.129,47.568,0.5,45.778,0.5
		c-1.791,0-3.433,0.629-4.723,1.676C39.766,1.129,38.124,0.5,36.333,0.5S32.9,1.129,31.611,2.176C30.322,1.129,28.68,0.5,26.889,0.5
		s-3.433,0.629-4.723,1.676C20.877,1.129,19.235,0.5,17.444,0.5s-3.433,0.629-4.722,1.676c-1.103-0.895-2.464-1.486-3.955-1.637
		C8.515,0.513,8.259,0.5,8,0.5S7.485,0.513,7.233,0.539C3.451,0.923,0.5,4.116,0.5,8c0,1.791,0.629,3.433,1.676,4.722
		C1.129,14.012,0.5,15.654,0.5,17.444s0.629,3.433,1.676,4.722C1.129,23.456,0.5,25.099,0.5,26.889s0.629,3.433,1.676,4.722
		C1.129,32.9,0.5,34.543,0.5,36.333s0.629,3.433,1.676,4.722C1.129,42.345,0.5,43.988,0.5,45.778S1.129,49.21,2.176,50.5
		C1.129,51.79,0.5,53.432,0.5,55.223s0.629,3.435,1.676,4.723C1.129,61.234,0.5,62.876,0.5,64.667c0,1.79,0.629,3.433,1.676,4.722
		C1.129,70.68,0.5,72.32,0.5,74.111c0,1.789,0.629,3.433,1.676,4.722C1.129,80.123,0.5,81.766,0.5,83.557s0.629,3.434,1.676,4.723
		C1.129,89.566,0.5,91.21,0.5,93c0,4.143,3.358,7.5,7.5,7.5c1.791,0,3.433-0.629,4.722-1.676c1.29,1.047,2.932,1.676,4.722,1.676
		s3.433-0.629,4.722-1.676c1.29,1.047,2.932,1.676,4.723,1.676s3.433-0.629,4.722-1.676c1.289,1.047,2.932,1.676,4.722,1.676
		s3.433-0.629,4.722-1.676c1.29,1.047,2.932,1.676,4.723,1.676c1.79,0,3.432-0.629,4.722-1.676c1.29,1.047,2.932,1.676,4.723,1.676
		s3.435-0.629,4.723-1.676c1.289,1.047,2.933,1.676,4.724,1.676c1.79,0,3.435-0.629,4.724-1.676c1.287,1.047,2.93,1.676,4.721,1.676
		s3.433-0.629,4.723-1.676c1.289,1.047,2.932,1.676,4.723,1.676c1.789,0,3.434-0.629,4.721-1.676
		c1.287,1.047,2.93,1.676,4.721,1.676c4.143,0,7.5-3.357,7.5-7.5c0-1.791-0.629-3.434-1.676-4.723
		c1.047-1.289,1.676-2.932,1.676-4.723c0-1.789-0.629-3.434-1.676-4.723c1.047-1.289,1.676-2.932,1.676-4.723
		s-0.629-3.434-1.676-4.724c1.047-1.286,1.676-2.93,1.676-4.72c0-1.791-0.629-3.434-1.676-4.725
		c1.047-1.289,1.676-2.932,1.676-4.721c0-1.791-0.629-3.434-1.676-4.724c1.047-1.29,1.676-2.932,1.676-4.722
		c0-1.791-0.629-3.433-1.676-4.723c1.047-1.29,1.676-2.932,1.676-4.722s-0.629-3.433-1.676-4.722
		c1.047-1.29,1.676-2.932,1.676-4.722c0-1.79-0.629-3.433-1.676-4.723c1.047-1.29,1.676-2.932,1.676-4.722
		S99.871,14.012,98.824,12.722z M87.176,31.611C86.129,32.9,85.5,34.543,85.5,36.333s0.629,3.433,1.676,4.722
		c-1.047,1.29-1.676,2.933-1.676,4.723s0.629,3.432,1.676,4.722c-1.047,1.29-1.676,2.932-1.676,4.723s0.629,3.435,1.676,4.723
		c-1.047,1.289-1.676,2.931-1.676,4.722c0,1.79,0.629,3.433,1.676,4.722C86.129,70.68,85.5,72.32,85.5,74.111
		s0.629,3.433,1.676,4.723c-1.047,1.289-1.676,2.932-1.676,4.723c0,0.808,0.131,1.582,0.366,2.312
		c-0.728-0.237-1.505-0.368-2.31-0.368c-1.791,0-3.434,0.629-4.723,1.676c-1.29-1.047-2.932-1.676-4.723-1.676
		s-3.435,0.629-4.723,1.676C68.1,86.129,66.457,85.5,64.667,85.5c-1.791,0-3.433,0.629-4.724,1.676
		c-1.289-1.047-2.93-1.676-4.721-1.676s-3.433,0.629-4.723,1.676c-1.29-1.047-2.932-1.676-4.722-1.676
		c-1.791,0-3.433,0.629-4.723,1.676c-1.289-1.047-2.931-1.676-4.722-1.676s-3.433,0.629-4.722,1.676
		c-1.289-1.047-2.931-1.676-4.722-1.676s-3.433,0.629-4.723,1.676c-1.289-1.047-2.931-1.676-4.722-1.676
		c-0.807,0-1.583,0.131-2.311,0.366c0.236-0.728,0.367-1.505,0.367-2.31c0-1.791-0.629-3.434-1.676-4.724
		c1.047-1.289,1.676-2.933,1.676-4.722c0-1.791-0.629-3.435-1.676-4.723c1.047-1.289,1.676-2.932,1.676-4.722
		c0-1.791-0.629-3.433-1.676-4.724c1.047-1.289,1.676-2.93,1.676-4.721s-0.629-3.434-1.676-4.723
		c1.047-1.29,1.676-2.932,1.676-4.722c0-1.791-0.629-3.433-1.676-4.723c1.047-1.289,1.676-2.931,1.676-4.722
		s-0.629-3.433-1.676-4.722c1.047-1.289,1.676-2.931,1.676-4.722s-0.629-3.433-1.676-4.723c1.047-1.289,1.676-2.931,1.676-4.722
		c0-0.807-0.131-1.583-0.367-2.311c0.729,0.236,1.504,0.367,2.311,0.367c1.791,0,3.433-0.629,4.722-1.676
		c1.29,1.047,2.933,1.676,4.723,1.676s3.433-0.629,4.722-1.676c1.289,1.047,2.932,1.676,4.722,1.676s3.433-0.629,4.722-1.676
		c1.29,1.047,2.933,1.676,4.723,1.676s3.432-0.629,4.722-1.676c1.29,1.047,2.932,1.676,4.723,1.676s3.435-0.629,4.723-1.676
		c1.289,1.047,2.931,1.676,4.722,1.676c1.79,0,3.433-0.629,4.722-1.676c1.291,1.047,2.932,1.676,4.723,1.676
		s3.433-0.629,4.723-1.676c1.289,1.047,2.932,1.676,4.723,1.676c0.807,0,1.582-0.131,2.312-0.367
		c-0.237,0.729-0.368,1.504-0.368,2.311c0,1.791,0.629,3.433,1.676,4.722c-1.047,1.29-1.676,2.933-1.676,4.723
		S86.129,30.322,87.176,31.611z"/>
</g>
</g></g><g transform="translate(0,806) scale(2.1274509803922, 2.1274509803922)"><g transform="" style="fill: rgb(0, 0, 0);">
<g>
	<path style="fill:none;" d="M85.5,17.444c0-0.807,0.131-1.583,0.366-2.311c-0.728,0.236-1.505,0.367-2.31,0.367
		c-1.791,0-3.434-0.629-4.723-1.676c-1.29,1.047-2.932,1.676-4.723,1.676s-3.435-0.629-4.723-1.676
		C68.1,14.871,66.457,15.5,64.667,15.5c-1.791,0-3.433-0.629-4.724-1.676c-1.289,1.047-2.93,1.676-4.721,1.676
		s-3.433-0.629-4.723-1.676c-1.29,1.047-2.932,1.676-4.722,1.676c-1.791,0-3.433-0.629-4.723-1.676
		c-1.289,1.047-2.931,1.676-4.722,1.676s-3.433-0.629-4.722-1.676c-1.289,1.047-2.931,1.676-4.722,1.676s-3.433-0.629-4.723-1.676
		c-1.289,1.047-2.931,1.676-4.722,1.676c-0.807,0-1.583-0.131-2.311-0.367c0.236,0.729,0.367,1.504,0.367,2.311
		c0,1.791-0.629,3.433-1.676,4.722c1.047,1.29,1.676,2.933,1.676,4.723s-0.629,3.433-1.676,4.722
		c1.047,1.289,1.676,2.932,1.676,4.722s-0.629,3.433-1.676,4.722c1.047,1.29,1.676,2.933,1.676,4.723s-0.629,3.432-1.676,4.722
		c1.047,1.289,1.676,2.932,1.676,4.723s-0.629,3.435-1.676,4.723c1.047,1.289,1.676,2.931,1.676,4.722
		c0,1.79-0.629,3.433-1.676,4.722c1.047,1.291,1.676,2.932,1.676,4.723c0,1.789-0.629,3.433-1.676,4.722
		c1.047,1.29,1.676,2.933,1.676,4.724c0,0.808-0.131,1.582-0.367,2.312c0.729-0.237,1.504-0.368,2.311-0.368
		c1.791,0,3.433,0.629,4.722,1.676c1.29-1.047,2.933-1.676,4.723-1.676s3.433,0.629,4.722,1.676
		c1.289-1.047,2.932-1.676,4.722-1.676s3.433,0.629,4.722,1.676c1.29-1.047,2.933-1.676,4.723-1.676s3.432,0.629,4.722,1.676
		c1.29-1.047,2.932-1.676,4.723-1.676s3.435,0.629,4.723,1.676c1.289-1.047,2.931-1.676,4.722-1.676c1.79,0,3.433,0.629,4.722,1.676
		c1.291-1.047,2.932-1.676,4.723-1.676s3.433,0.629,4.723,1.676c1.289-1.047,2.932-1.676,4.723-1.676
		c0.807,0,1.582,0.131,2.312,0.366c-0.237-0.728-0.368-1.505-0.368-2.31c0-1.791,0.629-3.434,1.676-4.723
		c-1.047-1.29-1.676-2.932-1.676-4.723s0.629-3.435,1.676-4.723C86.129,68.1,85.5,66.457,85.5,64.667
		c0-1.791,0.629-3.433,1.676-4.724c-1.047-1.289-1.676-2.93-1.676-4.721s0.629-3.433,1.676-4.723
		c-1.047-1.29-1.676-2.932-1.676-4.722c0-1.791,0.629-3.433,1.676-4.723c-1.047-1.289-1.676-2.931-1.676-4.722
		s0.629-3.433,1.676-4.722c-1.047-1.289-1.676-2.931-1.676-4.722s0.629-3.433,1.676-4.723C86.129,20.877,85.5,19.235,85.5,17.444z"
		/>
	<path d="M98.824,12.722C99.871,11.433,100.5,9.791,100.5,8c0-3.884-2.951-7.077-6.732-7.461C93.516,0.513,93.259,0.5,93,0.5
		s-0.516,0.013-0.768,0.039c-1.491,0.152-2.854,0.742-3.955,1.637C86.988,1.129,85.346,0.5,83.557,0.5
		c-1.791,0-3.434,0.629-4.723,1.676C77.544,1.129,75.902,0.5,74.111,0.5s-3.435,0.629-4.723,1.676C68.1,1.129,66.457,0.5,64.667,0.5
		c-1.791,0-3.433,0.629-4.724,1.676C58.654,1.129,57.014,0.5,55.223,0.5S51.79,1.129,50.5,2.176C49.21,1.129,47.568,0.5,45.778,0.5
		c-1.791,0-3.433,0.629-4.723,1.676C39.766,1.129,38.124,0.5,36.333,0.5S32.9,1.129,31.611,2.176C30.322,1.129,28.68,0.5,26.889,0.5
		s-3.433,0.629-4.723,1.676C20.877,1.129,19.235,0.5,17.444,0.5s-3.433,0.629-4.722,1.676c-1.103-0.895-2.464-1.486-3.955-1.637
		C8.515,0.513,8.259,0.5,8,0.5S7.485,0.513,7.233,0.539C3.451,0.923,0.5,4.116,0.5,8c0,1.791,0.629,3.433,1.676,4.722
		C1.129,14.012,0.5,15.654,0.5,17.444s0.629,3.433,1.676,4.722C1.129,23.456,0.5,25.099,0.5,26.889s0.629,3.433,1.676,4.722
		C1.129,32.9,0.5,34.543,0.5,36.333s0.629,3.433,1.676,4.722C1.129,42.345,0.5,43.988,0.5,45.778S1.129,49.21,2.176,50.5
		C1.129,51.79,0.5,53.432,0.5,55.223s0.629,3.435,1.676,4.723C1.129,61.234,0.5,62.876,0.5,64.667c0,1.79,0.629,3.433,1.676,4.722
		C1.129,70.68,0.5,72.32,0.5,74.111c0,1.789,0.629,3.433,1.676,4.722C1.129,80.123,0.5,81.766,0.5,83.557s0.629,3.434,1.676,4.723
		C1.129,89.566,0.5,91.21,0.5,93c0,4.143,3.358,7.5,7.5,7.5c1.791,0,3.433-0.629,4.722-1.676c1.29,1.047,2.932,1.676,4.722,1.676
		s3.433-0.629,4.722-1.676c1.29,1.047,2.932,1.676,4.723,1.676s3.433-0.629,4.722-1.676c1.289,1.047,2.932,1.676,4.722,1.676
		s3.433-0.629,4.722-1.676c1.29,1.047,2.932,1.676,4.723,1.676c1.79,0,3.432-0.629,4.722-1.676c1.29,1.047,2.932,1.676,4.723,1.676
		s3.435-0.629,4.723-1.676c1.289,1.047,2.933,1.676,4.724,1.676c1.79,0,3.435-0.629,4.724-1.676c1.287,1.047,2.93,1.676,4.721,1.676
		s3.433-0.629,4.723-1.676c1.289,1.047,2.932,1.676,4.723,1.676c1.789,0,3.434-0.629,4.721-1.676
		c1.287,1.047,2.93,1.676,4.721,1.676c4.143,0,7.5-3.357,7.5-7.5c0-1.791-0.629-3.434-1.676-4.723
		c1.047-1.289,1.676-2.932,1.676-4.723c0-1.789-0.629-3.434-1.676-4.723c1.047-1.289,1.676-2.932,1.676-4.723
		s-0.629-3.434-1.676-4.724c1.047-1.286,1.676-2.93,1.676-4.72c0-1.791-0.629-3.434-1.676-4.725
		c1.047-1.289,1.676-2.932,1.676-4.721c0-1.791-0.629-3.434-1.676-4.724c1.047-1.29,1.676-2.932,1.676-4.722
		c0-1.791-0.629-3.433-1.676-4.723c1.047-1.29,1.676-2.932,1.676-4.722s-0.629-3.433-1.676-4.722
		c1.047-1.29,1.676-2.932,1.676-4.722c0-1.79-0.629-3.433-1.676-4.723c1.047-1.29,1.676-2.932,1.676-4.722
		S99.871,14.012,98.824,12.722z M87.176,31.611C86.129,32.9,85.5,34.543,85.5,36.333s0.629,3.433,1.676,4.722
		c-1.047,1.29-1.676,2.933-1.676,4.723s0.629,3.432,1.676,4.722c-1.047,1.29-1.676,2.932-1.676,4.723s0.629,3.435,1.676,4.723
		c-1.047,1.289-1.676,2.931-1.676,4.722c0,1.79,0.629,3.433,1.676,4.722C86.129,70.68,85.5,72.32,85.5,74.111
		s0.629,3.433,1.676,4.723c-1.047,1.289-1.676,2.932-1.676,4.723c0,0.808,0.131,1.582,0.366,2.312
		c-0.728-0.237-1.505-0.368-2.31-0.368c-1.791,0-3.434,0.629-4.723,1.676c-1.29-1.047-2.932-1.676-4.723-1.676
		s-3.435,0.629-4.723,1.676C68.1,86.129,66.457,85.5,64.667,85.5c-1.791,0-3.433,0.629-4.724,1.676
		c-1.289-1.047-2.93-1.676-4.721-1.676s-3.433,0.629-4.723,1.676c-1.29-1.047-2.932-1.676-4.722-1.676
		c-1.791,0-3.433,0.629-4.723,1.676c-1.289-1.047-2.931-1.676-4.722-1.676s-3.433,0.629-4.722,1.676
		c-1.289-1.047-2.931-1.676-4.722-1.676s-3.433,0.629-4.723,1.676c-1.289-1.047-2.931-1.676-4.722-1.676
		c-0.807,0-1.583,0.131-2.311,0.366c0.236-0.728,0.367-1.505,0.367-2.31c0-1.791-0.629-3.434-1.676-4.724
		c1.047-1.289,1.676-2.933,1.676-4.722c0-1.791-0.629-3.435-1.676-4.723c1.047-1.289,1.676-2.932,1.676-4.722
		c0-1.791-0.629-3.433-1.676-4.724c1.047-1.289,1.676-2.93,1.676-4.721s-0.629-3.434-1.676-4.723
		c1.047-1.29,1.676-2.932,1.676-4.722c0-1.791-0.629-3.433-1.676-4.723c1.047-1.289,1.676-2.931,1.676-4.722
		s-0.629-3.433-1.676-4.722c1.047-1.289,1.676-2.931,1.676-4.722s-0.629-3.433-1.676-4.723c1.047-1.289,1.676-2.931,1.676-4.722
		c0-0.807-0.131-1.583-0.367-2.311c0.729,0.236,1.504,0.367,2.311,0.367c1.791,0,3.433-0.629,4.722-1.676
		c1.29,1.047,2.933,1.676,4.723,1.676s3.433-0.629,4.722-1.676c1.289,1.047,2.932,1.676,4.722,1.676s3.433-0.629,4.722-1.676
		c1.29,1.047,2.933,1.676,4.723,1.676s3.432-0.629,4.722-1.676c1.29,1.047,2.932,1.676,4.723,1.676s3.435-0.629,4.723-1.676
		c1.289,1.047,2.931,1.676,4.722,1.676c1.79,0,3.433-0.629,4.722-1.676c1.291,1.047,2.932,1.676,4.723,1.676
		s3.433-0.629,4.723-1.676c1.289,1.047,2.932,1.676,4.723,1.676c0.807,0,1.582-0.131,2.312-0.367
		c-0.237,0.729-0.368,1.504-0.368,2.311c0,1.791,0.629,3.433,1.676,4.722c-1.047,1.29-1.676,2.933-1.676,4.723
		S86.129,30.322,87.176,31.611z"/>
</g>
</g></g><g transform="translate(62,62) scale(0.93, 0.93)"><g transform="" style="fill: rgb(0, 0, 0);">
<rect width="100" height="100"/>
</g></g><g transform="translate(868,62) scale(0.93, 0.93)"><g transform="" style="fill: rgb(0, 0, 0);">
<rect width="100" height="100"/>
</g></g><g transform="translate(62,868) scale(0.93, 0.93)"><g transform="" style="fill: rgb(0, 0, 0);">
<rect width="100" height="100"/>
</g></g></g></svg>