<svg width="20" height="14" viewBox="0 0 20 14" fill="none" xmlns="http://www.w3.org/2000/svg">
<path d="M18.7909 0.406372C19.1956 0.406372 19.5234 0.734455 19.5234 1.13893C19.5234 1.5434 19.1954 1.87148 18.7909 1.87148H1.20801C0.803274 1.87148 0.47546 1.5434 0.47546 1.13893C0.47546 0.734187 0.803543 0.406372 1.20801 0.406372H18.7909ZM18.7909 6.26746C19.1956 6.26746 19.5234 6.59554 19.5234 7.00001C19.5234 7.40449 19.1954 7.73257 18.7909 7.73257H1.20801C0.803274 7.73257 0.47546 7.40449 0.47546 7.00001C0.47546 6.59527 0.803543 6.26746 1.20801 6.26746H18.7909ZM18.7909 12.1285C19.1956 12.1285 19.5234 12.4566 19.5234 12.8611C19.5234 13.2656 19.1954 13.5937 18.7909 13.5937H1.20801C0.803274 13.5937 0.47546 13.2656 0.47546 12.8611C0.47546 12.4564 0.803543 12.1285 1.20801 12.1285H18.7909Z" fill="white"/>
</svg>
