<svg width="25" height="25" viewBox="0 0 25 25" fill="none" xmlns="http://www.w3.org/2000/svg">
<path fill-rule="evenodd" clip-rule="evenodd" d="M13.5 2.5C16.1522 2.5 18.6957 3.55357 20.5711 5.42893C22.4464 7.3043 23.5 9.84784 23.5 12.5C23.5 15.1522 22.4464 17.6957 20.5711 19.5711C18.6957 21.4464 16.1522 22.5 13.5 22.5C10.8478 22.5 8.3043 21.4464 6.42893 19.5711C4.55357 17.6957 3.5 15.1522 3.5 12.5C3.5 9.84784 4.55357 7.3043 6.42893 5.42893C8.3043 3.55357 10.8478 2.5 13.5 2.5ZM21.0292 8.65385C20.0425 6.7354 18.3635 5.26371 16.3323 4.53692C17.0154 5.82923 17.5092 7.21385 17.7985 8.65385H21.0292ZM21.9246 13.2615C21.9492 13.0084 21.9616 12.7543 21.9615 12.5C21.96 11.7193 21.8497 10.9426 21.6338 10.1923H18.0308C18.08 10.7015 18.1154 11.2138 18.1154 11.7308C18.1122 12.7644 18.006 13.7951 17.7985 14.8077H21.6338C21.78 14.3015 21.8769 13.7846 21.9262 13.2615H21.9246ZM16.4862 13.2615L16.4954 13.1831C16.5479 12.7007 16.5751 12.216 16.5769 11.7308C16.5666 11.2162 16.5276 10.7026 16.46 10.1923H10.54C10.4719 10.7025 10.4328 11.2161 10.4231 11.7308C10.4268 12.7666 10.5471 13.7987 10.7815 14.8077H16.2185C16.3369 14.2969 16.4262 13.7815 16.4862 13.2615ZM16.1908 8.65385C15.8283 7.02669 15.1742 5.47864 14.26 4.08462C14.0077 4.06308 13.7554 4.03846 13.5 4.03846C13.3397 4.03924 13.1796 4.04694 13.02 4.06154L12.74 4.08462L12.7308 4.1C11.8214 5.48994 11.1705 7.03263 10.8092 8.65385H16.1908ZM9.20154 8.65385C9.49664 7.21484 9.99715 5.82575 10.6877 4.52923C8.64767 5.25354 6.96071 6.72866 5.97077 8.65385H9.20154ZM5.36615 10.1923C5.1506 10.9427 5.04032 11.7193 5.03846 12.5C5.04032 13.2807 5.1506 14.0573 5.36615 14.8077H9.20154C8.99296 13.7953 8.88679 12.7644 8.88462 11.7308C8.88462 11.2138 8.92 10.7015 8.96923 10.1923H5.36615ZM9.60308 16.3462H5.97231C6.55387 17.4821 7.38419 18.4723 8.40144 19.2429C9.4187 20.0135 10.5967 20.5447 11.8477 20.7969C10.8631 19.4449 10.1049 17.9417 9.60308 16.3462ZM13.5 20.4138C14.4838 19.1971 15.2527 17.8215 15.7738 16.3462H11.2262C11.7473 17.8215 12.5163 19.1971 13.5 20.4138ZM17.3969 16.3462C16.895 17.9416 16.1369 19.4449 15.1523 20.7969C16.4032 20.5445 17.5811 20.0132 18.5984 19.2426C19.6156 18.472 20.446 17.482 21.0277 16.3462H17.3969Z" fill="white"/>
</svg>
