<svg width="53" height="44" viewBox="0 0 53 44" fill="none" xmlns="http://www.w3.org/2000/svg">
<g filter="url(#filter0_d_793_2379)">
<path d="M48.6533 22.4374C48.674 22.2188 46.9336 21.8005 46.0607 21.6188L45.4627 21.9499L48.0327 23.4814C48.2309 23.2245 48.6326 22.656 48.6533 22.4374Z" fill="#1F2B45"/>
<path d="M4.96009 27.0527C4.95315 26.987 6.05459 26.1838 6.60618 25.7904C7.0979 25.5614 8.05054 25.2235 7.92733 25.7038C7.80412 26.1841 6.51228 27.5642 5.88177 28.1942C5.85006 28.2164 5.76409 28.2486 5.67393 28.2C5.56123 28.1392 4.96877 27.1349 4.96009 27.0527Z" fill="#1C2842" stroke="#1F2B45" stroke-width="0.219317"/>
<path d="M27.3017 34.8308C27.5718 34.6718 26.4242 32.372 25.8166 31.242L24.8776 30.8475L25.524 35.005C26.004 35.0132 27.0316 34.9899 27.3017 34.8308Z" fill="#1F2B45"/>
<ellipse rx="15.8807" ry="9.49319" transform="matrix(-1 0 0 1 26.2912 11.9642)" fill="#FBFBFB"/>
<path d="M46.718 14.0783C46.7425 14.0006 46.7907 13.9228 46.789 13.8459C46.7391 12.2473 46.6284 10.6724 45.8228 9.21673C45.1575 8.01464 44.3493 6.9495 43.3256 6.03483C42.3704 5.18102 41.3517 4.4219 40.2206 3.81832C40.0989 3.75323 39.9611 3.71688 39.8309 3.66785C39.131 4.06347 38.431 4.45994 37.8215 4.80484C38.7641 5.64681 39.7608 6.39664 40.5875 7.30201C42.6451 9.55741 43.0475 12.3403 41.7972 14.8764C41.312 15.8595 37.0923 19.3453 37.0923 19.3453C36.7085 19.5186 36.3709 19.7616 35.9863 19.9316C31.0959 22.0889 26.0255 22.4245 20.8342 21.3805C18.3751 20.886 16.0673 19.9865 13.9903 18.5773C12.9378 19.1724 11.9048 19.7566 10.8709 20.3407C10.8658 20.3635 10.8515 20.3745 10.8278 20.3728H10.8143C10.761 20.4049 10.7078 20.4371 10.6537 20.4692L10.6359 20.4328L10.6503 20.4709C10.5268 20.5411 10.4043 20.6121 10.2809 20.6822C10.2513 20.7025 10.2208 20.7228 10.1912 20.7431C10.1718 20.7642 10.1473 20.7744 10.1177 20.7727L10.1245 20.7676C10.089 20.7913 10.0534 20.8141 10.0179 20.8378C10.0154 20.8564 10.0112 20.875 10.0061 20.8927C10.0442 20.9324 10.0763 20.984 10.1219 21.0102C11.0036 21.5267 11.8549 22.11 12.778 22.5378C14.0063 23.1067 15.2684 23.6283 16.5584 24.0366C18.239 24.5691 19.961 24.9639 21.7337 25.0823C23.0735 25.1719 24.41 25.346 25.7508 25.3841C26.7982 25.4137 27.8523 25.319 28.8989 25.2302C29.915 25.144 30.9404 25.0645 31.9362 24.8599C34.0504 24.4254 36.1317 23.881 38.1216 22.9993C40.5098 21.941 42.673 20.5875 44.4102 18.6145C45.0679 17.8681 45.6529 17.0641 46.0172 16.13C46.2776 15.4554 46.4855 14.7622 46.718 14.0783Z" fill="#E3E7F0"/>
<path d="M39.3535 3.34704C36.4953 1.94592 34.7714 1.36019 31.3667 0.815782C31.3667 0.815782 27.1315 0.299272 24.997 0.397332C23.5878 0.462424 22.1727 0.581619 20.7804 0.803946C19.2917 1.04149 17.8132 1.37794 16.3575 1.77018C15.3879 2.03139 14.4453 2.42364 13.5239 2.83194C11.364 3.78803 9.38422 5.02648 7.751 6.76114C6.37392 8.22359 5.40684 9.90669 5.14647 11.9245C5.06278 12.5755 5.12703 13.2458 5.12365 13.9077C5.29357 14.502 5.41445 15.1149 5.64101 15.6863C6.25389 17.2291 7.22012 18.5386 8.44081 19.657C8.7874 19.974 9.18303 20.2377 9.55583 20.5251C10.8703 19.7778 12.184 19.0306 13.4918 18.2875C12.9161 17.7279 12.3404 17.2291 11.8349 16.6678C9.36309 13.9187 9.24389 10.5407 11.5145 7.63354C12.7546 6.04597 14.3828 4.94955 16.1817 4.09321C18.8217 2.83532 21.6241 2.20976 24.5304 2.03562C28.5263 1.79639 33.6535 3.10476 37.3248 4.77179L39.3535 3.34704Z" fill="#D6DBE6"/>
<path d="M46.7185 14.079C46.4861 14.7629 46.2781 15.4569 46.0152 16.129C45.6508 17.0631 45.065 17.867 44.4082 18.6134C42.6701 20.5865 40.5069 21.9399 38.1196 22.9983C36.1297 23.8808 34.0484 24.4252 31.9342 24.8589C30.9384 25.0635 29.913 25.1429 28.8968 25.2292C27.8503 25.3179 26.7961 25.4126 25.7488 25.383C24.408 25.345 23.0715 25.1708 21.7316 25.0812C19.9589 24.962 18.237 24.5672 16.5564 24.0355C15.2664 23.6272 14.0051 23.1056 12.776 22.5367C11.8529 22.109 11.0016 21.5257 10.1199 21.0092C10.0743 20.9821 10.0421 20.9314 10.0041 20.8917C9.98043 20.8984 9.95929 20.9094 9.94069 20.9246C9.94577 21.7066 9.94239 22.4877 9.96183 23.2696C9.96521 23.4201 10.0565 23.568 10.1081 23.7168C12.3144 25.1894 14.711 26.2402 17.269 26.9308C21.7367 28.1363 26.2619 28.3493 30.8327 27.701C34.2614 27.2149 37.5397 26.241 40.5272 24.454C43.5933 22.6196 46.0346 20.2669 46.7261 16.5373C46.7261 17.0107 46.7261 17.4841 46.7261 17.9574C46.7481 17.796 46.787 17.6345 46.7878 17.4731C46.7929 16.4274 46.7904 15.3817 46.7904 14.3368C46.7667 14.3055 46.7422 14.2734 46.7185 14.2421C46.7185 14.188 46.7185 14.1331 46.7185 14.079Z" fill="#D6DBE5"/>
<path d="M46.7246 17.9571C46.7246 17.4837 46.7246 17.0103 46.7246 16.5369C46.0323 20.2666 43.5909 22.6192 40.5257 24.4536C37.5382 26.2407 34.2599 27.2145 30.8312 27.7006C26.2604 28.349 21.7343 28.136 17.2675 26.9305C14.7095 26.2398 12.3138 25.1891 10.1065 23.7165C10.0761 23.7613 10.0203 23.8052 10.0178 23.8509C9.99327 24.4595 9.97129 25.0682 9.96453 25.6768C9.96368 25.7436 10.0575 25.8112 10.1065 25.878C10.2443 25.9752 10.3787 26.0775 10.5199 26.1697C13.3797 28.0404 16.5464 29.1098 19.883 29.721C23.0903 30.3085 26.3187 30.4007 29.5598 30.06C33.0308 29.6956 36.3665 28.8368 39.485 27.2357C41.4429 26.2305 43.2037 24.9617 44.6188 23.2507C45.7195 21.9201 46.411 20.4061 46.6992 18.7052C46.7077 18.455 46.7162 18.2056 46.7246 17.9571Z" fill="#1F2B45"/>
<path d="M9.55241 20.5255C9.17962 20.2372 8.78315 19.9743 8.4374 19.6573C7.21756 18.5389 6.25047 17.2295 5.6376 15.6867C5.41104 15.1152 5.28931 14.5024 5.12024 13.9081C5.09319 15.2091 5.0636 16.5092 5.04247 17.8102C5.03993 17.9725 5.08389 18.1357 5.10671 18.2988C5.10671 17.7561 5.10671 17.2126 5.10671 16.7307C5.37046 17.4738 5.59448 18.2845 5.93854 19.0402C6.71457 20.7427 7.99021 22.0471 9.42984 23.2052C9.45604 23.0768 9.50254 22.9491 9.50592 22.8198C9.52874 22.0767 9.54058 21.3336 9.55664 20.5906C9.55241 20.5686 9.55157 20.5475 9.55241 20.5255Z" fill="#B5BCCA"/>
<path d="M39.8483 17.4525C40.599 16.6706 41.3116 15.8599 41.796 14.8767C43.0471 12.3407 42.6447 9.5578 40.5863 7.3024C39.7596 6.39703 38.7629 5.6472 37.8203 4.80523C38.4298 4.46033 39.1298 4.06386 39.8297 3.66824C39.6699 3.56088 39.5102 3.45352 39.3513 3.34616C38.8762 3.62005 38.3791 3.86436 37.9311 4.1763C37.1263 4.60126 37.4981 4.60452 36.0469 4.01105L35.2882 4.21122C37.1294 5.05826 39.4223 6.46128 40.6396 8.1114C42.0885 10.0743 42.4495 12.2004 41.4367 14.4744C40.8881 15.7069 40.0149 16.6943 38.9742 17.5404L39.8483 17.4525Z" fill="#1F2B45"/>
<path d="M9.43062 23.205C7.99099 22.0478 6.71535 20.7425 5.93932 19.04C5.59526 18.2843 5.37124 17.4736 5.10749 16.7305C5.10749 17.2115 5.10749 17.7551 5.10749 18.2986C5.1151 18.4339 5.12356 18.5691 5.13117 18.7044C5.14469 18.7289 5.16667 18.7517 5.1709 18.7779C5.60287 21.5955 7.21918 23.6497 9.3985 25.3412C9.43654 25.2305 9.50501 25.1198 9.50755 25.0082C9.51769 24.5238 9.51431 24.0386 9.50416 23.5542C9.50247 23.4367 9.45683 23.3209 9.43062 23.205Z" fill="#1F2B45"/>
<path d="M9.39859 25.3399C7.21843 23.6484 5.60296 21.5942 5.17099 18.7766C5.16676 18.7504 5.14478 18.7276 5.13126 18.7031C4.91908 20.7057 5.32738 22.5773 6.39928 24.2782C7.07387 25.3484 7.89048 26.3129 8.91167 27.0847C9.12216 27.2445 9.32082 27.4195 9.52539 27.5877C9.51694 26.9807 9.5144 26.3729 9.49581 25.766C9.49158 25.624 9.4324 25.4819 9.39859 25.3399Z" fill="#B5BCCA"/>
<path d="M9.39706 25.3408C9.43088 25.4829 9.48921 25.6249 9.49344 25.7677C9.51203 26.3747 9.51457 26.9825 9.52302 27.5895C9.6363 27.6774 9.74873 27.7661 9.86201 27.8541C9.90005 27.7983 9.97021 27.7433 9.97106 27.6867C9.97867 27.1964 9.96683 26.7052 9.97951 26.2149C9.98289 26.1017 10.0615 25.9892 10.1055 25.8768C10.0556 25.81 9.96261 25.7424 9.96345 25.6756C9.97106 25.0669 9.99219 24.4583 10.0167 23.8496C10.0184 23.804 10.0742 23.76 10.1055 23.7152C10.0547 23.5664 9.96345 23.4185 9.95922 23.268C9.93978 22.4869 9.94316 21.705 9.93809 20.923C9.81044 20.8123 9.6828 20.7007 9.55515 20.59C9.53909 21.333 9.5264 22.0761 9.50443 22.8192C9.5002 22.9485 9.45455 23.0761 9.42834 23.2046C9.4537 23.3213 9.49935 23.4371 9.50189 23.5538C9.51203 24.0382 9.51626 24.5234 9.50527 25.0078C9.50443 25.1202 9.43595 25.2301 9.39706 25.3408Z" fill="#183554"/>
<path fill-rule="evenodd" clip-rule="evenodd" d="M44.6225 23.2498C45.7232 21.9183 46.4155 20.4052 46.7029 18.7043C46.7043 18.8668 46.706 19.0292 46.7077 19.1917C46.7116 19.5491 46.7154 19.9066 46.7148 20.264C46.7114 21.2928 46.4189 22.2531 46.0038 23.183C45.0368 25.3496 43.3799 26.9127 41.4643 28.2044C39.4972 29.5307 37.3365 30.4851 35.043 31.0989C34.2643 31.3069 33.472 31.463 32.6799 31.6191C32.3197 31.6901 31.9596 31.761 31.6008 31.8368C31.3691 31.8893 31.1383 31.9408 30.9067 31.9924L30.2288 32.0811L30.2226 32.0812C29.2394 32.1638 28.2553 32.2464 27.2729 32.3282L27.2717 32.3288C27.1872 32.3297 27.1024 32.3307 27.0177 32.3318C26.9329 32.3329 26.8482 32.3339 26.7637 32.3348L26.7602 32.3342L26.7413 32.3335L26.7357 32.3333L26.7353 32.3333C25.2523 32.277 23.7693 32.2207 22.2855 32.1636L22.2841 32.164C22.2136 32.1598 22.143 32.1553 22.0724 32.1509C22.0018 32.1465 21.9312 32.142 21.8606 32.1378C21.8191 32.1286 21.7774 32.1191 21.7356 32.1097L21.735 32.1095L21.7347 32.1095L21.7343 32.1094C21.6924 32.0999 21.6504 32.0904 21.6087 32.0811C21.5381 32.0765 21.4673 32.0721 21.3965 32.0676C21.3257 32.0632 21.2549 32.0587 21.1843 32.0541C21.0847 31.8998 20.9648 31.8396 20.8358 31.8211C20.9644 31.8397 21.0839 31.9001 21.1832 32.0539C21.079 32.0315 20.9747 32.009 20.8704 31.9865C20.6329 31.9352 20.3951 31.8838 20.1578 31.8333C20.1695 31.8357 20.1813 31.8378 20.1931 31.8394C20.1817 31.8378 20.1703 31.8358 20.1589 31.8335C20.0321 31.815 19.905 31.7988 19.7779 31.7826L19.7778 31.7826L19.7778 31.7826C19.5025 31.7474 19.2275 31.7123 18.9568 31.6551C16.9322 31.2265 14.9516 30.6424 13.0994 29.7116C12.3341 29.3272 11.5978 28.8857 10.8616 28.4442L10.8616 28.4442C10.5308 28.2459 10.2001 28.0475 9.86678 27.8544C9.87884 27.8367 9.89413 27.8191 9.90942 27.8015C9.94234 27.7636 9.97525 27.7257 9.97583 27.687C9.97915 27.4731 9.97861 27.259 9.97807 27.0448C9.97737 26.7682 9.97667 26.4916 9.98429 26.2153C9.98661 26.137 10.0243 26.06 10.0619 25.983C10.0792 25.9477 10.0964 25.9125 10.1102 25.8771C10.1562 25.9095 10.2017 25.9425 10.2473 25.9754C10.3384 26.0414 10.4295 26.1073 10.5236 26.1688C13.3843 28.0395 16.551 29.1089 19.8867 29.7201C23.094 30.3076 26.3232 30.3997 29.5635 30.0591C33.0353 29.6939 36.3702 28.8358 39.4887 27.2347C41.4466 26.2296 43.2074 24.9616 44.6225 23.2498ZM28.4508 32.1034C28.2759 32.113 28.1013 32.1255 27.9269 32.1409C28.1013 32.1254 28.2761 32.1129 28.4508 32.1034ZM26.0773 32.214C26.1977 32.2323 26.3178 32.2547 26.4379 32.2771C26.5164 32.2917 26.5948 32.3063 26.6732 32.3198C26.5906 32.3058 26.508 32.2904 26.4254 32.275C26.3094 32.2534 26.1935 32.2318 26.0773 32.214Z" fill="#D6DBE5"/>
<path d="M31.5957 31.8377C31.3641 31.8892 31.1333 31.9408 30.9017 31.9932C31.1333 31.9417 31.3649 31.8892 31.5957 31.8377Z" fill="#B5C6D9"/>
<path d="M37.9154 2.66721C38.0312 2.74836 38.1479 2.82951 38.2637 2.91067C38.1479 2.82951 38.032 2.74836 37.9154 2.66721Z" fill="#D9E8F4"/>
<path d="M21.8555 32.1376C21.7718 32.119 21.6872 32.0996 21.6036 32.081C21.6872 32.1004 21.7718 32.119 21.8555 32.1376Z" fill="#B5C6D9"/>
<path d="M46.7172 14.2422C46.7409 14.2735 46.7654 14.3047 46.7891 14.3369C46.7654 14.3056 46.7409 14.2735 46.7172 14.2422Z" fill="#E3E8F1"/>
<path d="M35.3093 4.22231C35.6339 4.42097 35.8604 4.26543 36.0608 4.0152C32.3894 2.34817 28.5245 1.79531 24.5277 2.03455C21.6214 2.20869 18.8199 2.83425 16.179 4.09213C14.3801 4.94932 12.7519 6.04489 11.5118 7.63246C9.24035 10.5396 9.35954 13.9176 11.8322 16.6667C12.3377 17.2289 12.9134 17.7276 13.4891 18.2864C12.1822 19.0295 10.8677 19.7768 9.55313 20.5241C9.55144 20.546 9.55313 20.5672 9.55736 20.5892C9.685 20.6999 9.81265 20.8115 9.9403 20.9222C9.95974 20.907 9.98087 20.896 10.0037 20.8893C10.0088 20.8715 10.013 20.8529 10.0155 20.8343C9.98679 20.8157 9.95805 20.7963 9.92931 20.7777C9.99356 20.7734 10.0578 20.7692 10.122 20.7641L10.1153 20.7692C10.1398 20.7591 10.1643 20.7498 10.1888 20.7396C10.2184 20.7193 10.2489 20.699 10.2784 20.6788C10.4019 20.6086 10.5244 20.5376 10.6479 20.4674L10.6335 20.4294L10.6512 20.4657C10.7045 20.4336 10.7578 20.4015 10.8119 20.3702C10.8119 20.3702 10.8254 20.3702 10.8245 20.3702C10.8212 20.3474 10.8169 20.3237 10.8135 20.3009C10.8313 20.3136 10.8499 20.3263 10.8676 20.3389C11.9015 19.7548 12.9345 19.1707 13.987 18.5755C16.064 19.9847 18.3718 20.8842 20.831 21.3787C26.0231 22.4236 31.0935 22.088 35.983 19.9298C36.3677 19.7599 36.7345 19.5485 37.1175 19.3744C37.7607 18.9734 38.0995 18.766 39.8496 17.4517L38.9934 17.5255C38.6003 17.7825 36.7261 19.0405 36.306 19.2374C30.9718 21.7431 25.4381 22.022 19.7836 20.6187C17.1993 19.978 14.8307 18.8655 12.8432 17.0378C9.685 14.1341 9.56158 10.2522 12.5431 7.1802C14.0665 5.61122 15.9389 4.59596 17.9686 3.8605C21.7372 2.49442 25.6241 2.20108 29.5786 2.69307C31.5568 2.94076 33.4808 3.41247 35.3093 4.22231Z" fill="#1F2B45"/>
<path d="M10.6465 20.4683C10.5231 20.5385 10.4005 20.6095 10.2771 20.6797C10.4005 20.6095 10.5231 20.5393 10.6465 20.4683Z" fill="#183554"/>
<path d="M10.123 20.7656C10.0588 20.7698 9.99455 20.774 9.93031 20.7791C9.95905 20.7977 9.98779 20.8172 10.0165 20.8358C10.052 20.8121 10.0875 20.7884 10.123 20.7656Z" fill="#183554"/>
<path d="M10.8105 20.3715C10.7573 20.4036 10.7032 20.4349 10.6499 20.467C10.704 20.4358 10.7573 20.4036 10.8105 20.3715Z" fill="#183554"/>
<path d="M10.1895 20.742C10.1649 20.7522 10.1404 20.7615 10.1159 20.7716C10.1455 20.7733 10.1692 20.7632 10.1895 20.742Z" fill="#183554"/>
<path d="M10.8691 20.3397C10.8514 20.3271 10.8328 20.3144 10.815 20.3017C10.8184 20.3245 10.8218 20.3482 10.826 20.371C10.8497 20.3727 10.8641 20.3626 10.8691 20.3397Z" fill="#183554"/>
<path d="M40.8389 20.6675C40.9604 19.9891 41.1039 19.3044 40.4271 18.8043C39.714 18.2773 38.261 18.2489 37.4596 18.7364C36.7244 19.1845 36.8253 19.8708 36.9295 20.5586C36.9405 20.363 36.95 20.1674 36.961 19.9654C38.1238 20.9656 39.6872 20.9656 40.8389 19.9339C40.8389 20.2036 40.8389 20.4356 40.8389 20.6675Z" fill="#32D808"/>
<path d="M40.8379 20.6673C40.8379 20.4354 40.8379 20.2035 40.8379 19.9337C39.6862 20.9655 38.1212 20.9655 36.96 19.9653C36.949 20.1672 36.9395 20.3628 36.9285 20.5585C36.9427 20.6342 36.9332 20.7257 36.9726 20.7856C37.4617 21.5524 38.2379 21.6597 39.0425 21.6234C39.7746 21.5903 40.4955 21.4672 40.8379 20.6673Z" fill="#2FBD0C"/>
</g>
<defs>
<filter id="filter0_d_793_2379" x="0.851562" y="0.384949" width="51.8027" height="42.6215" filterUnits="userSpaceOnUse" color-interpolation-filters="sRGB">
<feFlood flood-opacity="0" result="BackgroundImageFix"/>
<feColorMatrix in="SourceAlpha" type="matrix" values="0 0 0 0 0 0 0 0 0 0 0 0 0 0 0 0 0 0 127 0" result="hardAlpha"/>
<feOffset dy="4"/>
<feGaussianBlur stdDeviation="2"/>
<feComposite in2="hardAlpha" operator="out"/>
<feColorMatrix type="matrix" values="0 0 0 0 0 0 0 0 0 0 0 0 0 0 0 0 0 0 0.25 0"/>
<feBlend mode="normal" in2="BackgroundImageFix" result="effect1_dropShadow_793_2379"/>
<feBlend mode="normal" in="SourceGraphic" in2="effect1_dropShadow_793_2379" result="shape"/>
</filter>
</defs>
</svg>
