<svg width="43" height="41" viewBox="0 0 43 41" fill="none" xmlns="http://www.w3.org/2000/svg">
<path d="M1.81239 0.426077C1.46329 0.42663 1.12894 0.556887 0.881865 0.788078C0.634785 1.01927 0.495318 1.33287 0.494141 1.66029V11.3466C0.494141 11.7896 0.745938 12.1989 1.15519 12.4204C1.56415 12.6419 2.06836 12.6419 2.47732 12.4204C2.88657 12.1989 3.13836 11.7896 3.13836 11.3466V2.90417H12.1372C12.6022 2.89449 13.0277 2.65638 13.2571 2.27696C13.4867 1.89754 13.4867 1.43293 13.2571 1.05353C13.0277 0.674111 12.6022 0.436003 12.1372 0.426325L1.81239 0.426077ZM30.9964 0.426077C30.532 0.456774 30.1189 0.713962 29.9087 1.10362C29.6988 1.49327 29.7224 1.95784 29.9712 2.32676C30.2201 2.69595 30.6573 2.91497 31.1229 2.90391H40.1218V11.3463C40.1218 11.7894 40.3736 12.1986 40.7828 12.4202C41.1918 12.6417 41.696 12.6417 42.1049 12.4202C42.5142 12.1987 42.766 11.7894 42.766 11.3463V1.66002C42.7648 1.33121 42.6242 1.01678 42.3756 0.785339C42.1268 0.553871 41.7903 0.424442 41.44 0.425829H31.1233C31.0811 0.423893 31.0389 0.423893 30.9968 0.425829L30.9964 0.426077ZM7.74068 5.94073C7.3904 5.93963 7.05398 6.06877 6.80539 6.30024C6.55654 6.53171 6.4162 6.84642 6.41472 7.17493V15.6903C6.41324 16.0205 6.5527 16.3377 6.80156 16.571C7.05071 16.8047 7.3886 16.9353 7.74062 16.9341H15.9394C16.2902 16.9333 16.6261 16.802 16.8735 16.5686C17.1208 16.3351 17.2591 16.0193 17.2576 15.6903V7.17491C17.2562 6.84748 17.1167 6.53415 16.8699 6.3027C16.6228 6.07151 16.2882 5.94153 15.9394 5.9407L7.74068 5.94073ZM19.5286 5.94073C19.0642 5.97143 18.6511 6.22889 18.4412 6.61827C18.2309 7.00793 18.2545 7.4725 18.5034 7.84141C18.7522 8.2106 19.1898 8.42963 19.6551 8.41856H22.1525V16.7697C22.1445 17.1029 22.2801 17.4251 22.5287 17.6635C22.7772 17.9018 23.1178 18.0362 23.4734 18.0362C23.829 18.0362 24.1692 17.9018 24.4178 17.6635C24.6664 17.4251 24.8023 17.1029 24.7943 16.7697V7.17539C24.7929 6.84851 24.6537 6.53518 24.4075 6.30424C24.161 6.07305 23.8269 5.94252 23.4784 5.94114H19.6551C19.613 5.9392 19.5708 5.9392 19.5286 5.94114L19.5286 5.94073ZM27.3975 5.94073H27.3978C27.0492 5.94211 26.7152 6.07265 26.4687 6.30384C26.2225 6.53475 26.0833 6.84808 26.0818 7.17498V15.6903C26.0806 16.0189 26.2183 16.3344 26.4651 16.5678C26.7119 16.801 27.0471 16.9329 27.3977 16.9343H35.6093C35.9596 16.9329 36.2951 16.801 36.5416 16.5678C36.7884 16.3344 36.9264 16.0189 36.9249 15.6903V7.17498C36.9237 6.8481 36.7846 6.53477 36.5381 6.30384C36.2916 6.07265 35.9578 5.94211 35.6093 5.94073H27.3975ZM9.05707 8.41859H14.6141V14.4559H9.05707V8.41859ZM28.7237 8.41859H34.2836V14.4561H28.724L28.7237 8.41859ZM7.52707 18.9014H7.52736C7.06298 18.9321 6.6499 19.1895 6.43998 19.5789C6.22975 19.9686 6.25363 20.4331 6.5022 20.802C6.75105 21.1712 7.1886 21.3903 7.65389 21.3792H18.4975V33.3133C18.4963 33.6435 18.6355 33.9607 18.8843 34.1943C19.1335 34.4277 19.4714 34.5583 19.8237 34.5572H24.1323H24.132C24.4876 34.5646 24.8311 34.4371 25.0853 34.204C25.3394 33.9709 25.4827 33.6515 25.4827 33.3182C25.4827 32.9847 25.3394 32.6653 25.0853 32.4321C24.8311 32.199 24.4876 32.0718 24.132 32.0792H21.1393V20.1353C21.1379 19.8084 20.999 19.495 20.7525 19.2641C20.506 19.0329 20.1722 18.9024 19.8237 18.901H7.65389C7.61173 18.8991 7.56957 18.8991 7.5274 18.901L7.52707 18.9014ZM23.8015 19.1193H23.8018C23.451 19.1198 23.1151 19.2515 22.8678 19.4846C22.6204 19.718 22.4821 20.0341 22.4836 20.3629V26.0979C22.4833 26.427 22.6224 26.7426 22.8704 26.9752C23.1184 27.208 23.4548 27.3388 23.8057 27.3388C24.1566 27.3388 24.493 27.208 24.741 26.9752C24.989 26.7426 25.1281 26.4271 25.1281 26.0979V21.5996H35.6102C36.0825 21.5996 36.5189 21.3632 36.7551 20.9793C36.9912 20.5958 36.9912 20.1228 36.7551 19.7393C36.5189 19.3554 36.0825 19.1193 35.6102 19.1193L23.8015 19.1193ZM27.3984 23.5474C27.0478 23.5487 26.7126 23.6806 26.4658 23.9138C26.219 24.1469 26.0813 24.4627 26.0825 24.7913V33.3038C26.0745 33.6373 26.2102 33.9595 26.459 34.1979C26.7076 34.4363 27.0478 34.5707 27.4034 34.5707C27.759 34.5707 28.0996 34.4363 28.3482 34.1979C28.5967 33.9595 28.7323 33.6373 28.7244 33.3038V26.0253H34.284V33.3038C34.2764 33.6373 34.412 33.9595 34.6605 34.1979C34.9091 34.4363 35.2497 34.5707 35.605 34.5707C35.9605 34.5707 36.3011 34.4363 36.5497 34.1979C36.7982 33.9595 36.9339 33.6373 36.9259 33.3038V24.7913C36.9274 24.4628 36.7894 24.1469 36.5426 23.9138C36.2961 23.6806 35.9606 23.5487 35.6103 23.5474H27.3984ZM7.60496 23.5642V23.5645C7.27857 23.5949 6.97635 23.7384 6.75671 23.9663C6.53675 24.1945 6.41528 24.4909 6.41557 24.7985V33.3138C6.4141 33.644 6.55356 33.9612 6.80241 34.1949C7.05156 34.4283 7.38945 34.5588 7.74147 34.5577H15.9402C16.2911 34.5569 16.6269 34.4255 16.8743 34.1921C17.1217 33.959 17.26 33.6429 17.2585 33.3138V24.7985C17.257 24.471 17.1175 24.1577 16.8708 23.9265C16.6237 23.6953 16.289 23.5651 15.9402 23.5645H7.74148C7.69607 23.5623 7.65037 23.5623 7.60496 23.5645V23.5642ZM9.05737 26.0424H14.6144V32.0796H9.05737V26.0424ZM1.79232 27.9008C1.44381 27.9063 1.11181 28.0412 0.868881 28.2755C0.625629 28.5097 0.491182 28.8247 0.494722 29.1516V38.8287C0.493247 39.1575 0.631532 39.4736 0.878906 39.7067C1.12599 39.9401 1.46212 40.0717 1.81298 40.0723H12.138C12.4936 40.0798 12.8371 39.9526 13.0913 39.7194C13.3455 39.4863 13.4887 39.1669 13.4887 38.8333C13.4887 38.4998 13.3455 38.1804 13.0913 37.9473C12.8371 37.7141 12.4936 37.5869 12.138 37.5944H3.13919V29.152C3.14272 28.8171 3.00149 28.4952 2.74792 28.2596C2.49435 28.024 2.14968 27.8945 1.79263 27.9012L1.79232 27.9008ZM41.4199 27.9008C41.0714 27.9063 40.7394 28.0412 40.4964 28.2755C40.2532 28.5097 40.1187 28.8247 40.1223 29.1516V37.594H31.1234C30.6585 37.6037 30.233 37.8418 30.0036 38.2212C29.7739 38.6006 29.7739 39.0652 30.0036 39.4446C30.233 39.8241 30.6585 40.0622 31.1234 40.0718H41.4402C41.7922 40.0732 42.1304 39.9424 42.3792 39.709C42.6284 39.4753 42.7676 39.1584 42.7661 38.8283V29.1511C42.7696 28.8162 42.6284 28.4944 42.3748 28.2588C42.1213 28.0231 41.7766 27.8937 41.4195 27.9004L41.4199 27.9008Z" fill="black"/>
</svg>
