<svg width="36" height="24" viewBox="0 0 36 24" fill="none" xmlns="http://www.w3.org/2000/svg">
<path fill-rule="evenodd" clip-rule="evenodd" d="M0.0451279 12C0.0451279 11.6685 0.176823 11.3505 0.411243 11.1161C0.645664 10.8817 0.963608 10.75 1.29513 10.75H30.7776L22.9101 2.88499C22.7939 2.76877 22.7017 2.6308 22.6388 2.47895C22.5759 2.3271 22.5435 2.16435 22.5435 1.99999C22.5435 1.83563 22.5759 1.67288 22.6388 1.52103C22.7017 1.36918 22.7939 1.23121 22.9101 1.11499C23.0263 0.998772 23.1643 0.906582 23.3162 0.843684C23.468 0.780786 23.6308 0.748413 23.7951 0.748413C23.9595 0.748413 24.1222 0.780786 24.2741 0.843684C24.4259 0.906582 24.5639 0.998772 24.6801 1.11499L34.6801 11.115C34.7965 11.2311 34.8889 11.369 34.9519 11.5209C35.0149 11.6728 35.0474 11.8356 35.0474 12C35.0474 12.1644 35.0149 12.3272 34.9519 12.4791C34.8889 12.6309 34.7965 12.7689 34.6801 12.885L24.6801 22.885C24.5639 23.0012 24.4259 23.0934 24.2741 23.1563C24.1222 23.2192 23.9595 23.2516 23.7951 23.2516C23.6308 23.2516 23.468 23.2192 23.3162 23.1563C23.1643 23.0934 23.0263 23.0012 22.9101 22.885C22.7939 22.7688 22.7017 22.6308 22.6388 22.479C22.5759 22.3271 22.5435 22.1644 22.5435 22C22.5435 21.8356 22.5759 21.6729 22.6388 21.521C22.7017 21.3692 22.7939 21.2312 22.9101 21.115L30.7776 13.25H1.29513C0.963608 13.25 0.645664 13.1183 0.411243 12.8839C0.176823 12.6495 0.0451279 12.3315 0.0451279 12Z" fill="#6A6A6A"/>
</svg>
